AdobeSans-wd666.48_wt772.84.ufo
<glyph name="exclam" format="1">
  <advance width="363.184728589"/>
  <unicode hex="0021"/>
  <outline>
    <contour>
      <point x="290.572554443" y="709.0" type="line"/>
      <point x="72.0213270096" y="709.0" type="line"/>
      <point x="105.296555026" y="243.640590138" type="line"/>
      <point x="257.555082036" y="243.640590138" type="line"/>
    </contour>
    <contour>
      <point x="88.0983284124" y="154.2841631" type="line"/>
      <point x="88.0983284124" y="0.0" type="line"/>
      <point x="274.829069765" y="0.0" type="line"/>
      <point x="274.829069765" y="154.2841631" type="line"/>
    </contour>
  </outline>
</glyph>
<glyph name="numbersign" format="1">
  <advance width="810.872400832"/>
  <unicode hex="0023"/>
  <outline>
    <contour>
      <point x="418.763056159" y="194.535619734" type="line"/>
      <point x="357.639582811" y="0.0" type="line"/>
      <point x="471.484574076" y="0.0" type="line"/>
      <point x="532.608047424" y="194.535619734" type="line"/>
      <point x="677.482123241" y="194.535619734" type="line"/>
      <point x="710.254030728" y="296.18524893" type="line"/>
      <point x="564.455716027" y="296.18524893" type="line"/>
      <point x="600.841784717" y="410.587592701" type="line"/>
      <point x="745.715860533" y="410.587592701" type="line"/>
      <point x="777.714926389" y="512.237221897" type="line"/>
      <point x="632.840850573" y="512.237221897" type="line"/>
      <point x="692.904418168" y="702.046941203" type="line"/>
      <point x="579.210824156" y="702.046941203" type="line"/>
      <point x="519.147256561" y="512.237221897" type="line"/>
      <point x="392.033708535" y="512.237221897" type="line"/>
      <point x="452.09727613" y="702.046941203" type="line"/>
      <point x="338.403682118" y="702.046941203" type="line"/>
      <point x="278.340114523" y="512.237221897" type="line"/>
      <point x="133.238880337" y="512.237221897" type="line"/>
      <point x="101.31545062" y="410.587592701" type="line"/>
      <point x="246.189651414" y="410.587592701" type="line"/>
      <point x="209.954979977" y="296.18524893" type="line"/>
      <point x="65.7779846761" y="296.18524893" type="line"/>
      <point x="33.0817133277" y="194.535619734" type="line"/>
      <point x="177.955914121" y="194.535619734" type="line"/>
      <point x="116.832440773" y="0.0" type="line"/>
      <point x="230.526034785" y="0.0" type="line"/>
      <point x="291.800905387" y="194.535619734" type="line"/>
    </contour>
    <contour>
      <point x="450.762122015" y="296.18524893" type="line"/>
      <point x="323.648573989" y="296.18524893" type="line"/>
      <point x="360.034642679" y="410.587592701" type="line"/>
      <point x="487.148190705" y="410.587592701" type="line"/>
    </contour>
  </outline>
</glyph>
<glyph name="dollar" format="1">
  <advance width="810.509655185"/>
  <unicode hex="0024"/>
  <outline>
    <contour>
      <point x="464.035497551" y="559.034195587" type="line"/>
      <point x="506.988888603" y="555.957334122"/>
      <point x="531.025935695" y="529.368752914"/>
      <point x="542.142746372" y="501.18612267" type="curve"/>
      <point x="729.184183807" y="505.199764198" type="line"/>
      <point x="699.025045705" y="613.685010588"/>
      <point x="595.325919412" y="668.860793436"/>
      <point x="464.035497551" y="675.620894202" type="curve"/>
      <point x="464.035497551" y="751.864208155" type="line"/>
      <point x="356.09539146" y="751.864208155" type="line"/>
      <point x="356.09539146" y="676.136405422" type="line"/>
      <point x="137.90277031" y="671.513860694"/>
      <point x="74.4914244007" y="579.684585952"/>
      <point x="74.4914244007" y="486.996303579" type="curve" smooth="yes"/>
      <point x="74.4914244007" y="330.741767004"/>
      <point x="240.415134373" y="299.916883176"/>
      <point x="356.09539146" y="274.124224942" type="curve"/>
      <point x="356.09539146" y="130.829887591" type="line"/>
      <point x="301.51718931" y="133.573657529"/>
      <point x="268.27254146" y="156.620108306"/>
      <point x="246.917269697" y="197.376016397" type="curve"/>
      <point x="55.6921238412" y="190.72703901" type="line"/>
      <point x="83.576261265" y="82.039918562"/>
      <point x="178.427117628" y="17.0179813531"/>
      <point x="356.09539146" y="13.4703473449" type="curve"/>
      <point x="356.09539146" y="-69.227158369" type="line"/>
      <point x="464.035497551" y="-69.227158369" type="line"/>
      <point x="464.035497551" y="13.2883528504" type="line"/>
      <point x="661.698552506" y="21.607252674"/>
      <point x="755.45568148" y="110.568528228"/>
      <point x="755.45568148" y="224.515404856" type="curve" smooth="yes"/>
      <point x="755.45568148" y="371.57128962"/>
      <point x="577.123193574" y="404.272896512"/>
      <point x="464.035497551" y="430.322959868" type="curve"/>
    </contour>
    <contour>
      <point x="356.09539146" y="443.525572921" type="line"/>
      <point x="312.848917399" y="454.115566008"/>
      <point x="263.975888548" y="467.965480098"/>
      <point x="263.975888548" y="505.302602476" type="curve" smooth="yes"/>
      <point x="263.975888548" y="530.372956896"/>
      <point x="278.668353017" y="555.942467267"/>
      <point x="356.09539146" y="559.034195587" type="curve"/>
    </contour>
    <contour>
      <point x="464.035497551" y="261.179792696" type="line"/>
      <point x="511.689035619" y="249.544935956"/>
      <point x="562.880276007" y="237.681393472"/>
      <point x="562.880276007" y="193.83054851" type="curve" smooth="yes"/>
      <point x="562.880276007" y="159.156582089"/>
      <point x="528.77289711" y="133.072837921"/>
      <point x="464.035497551" y="130.905648706" type="curve"/>
    </contour>
  </outline>
</glyph>
<glyph name="percent" format="1">
  <advance width="1078.15818951"/>
  <unicode hex="0025"/>
  <outline>
    <contour>
      <point x="473.321623995" y="525.316009011" type="line"/>
      <point x="473.321623995" y="637.579980483"/>
      <point x="392.881230835" y="708.407375535"/>
      <point x="248.298990371" y="708.407375535" type="curve" smooth="yes"/>
      <point x="103.61081675" y="708.407375535"/>
      <point x="23.0947874513" y="637.579980483"/>
      <point x="23.0947874513" y="525.316009011" type="curve" smooth="yes"/>
      <point x="23.0947874513" y="418.490825405"/>
      <point x="101.294417847" y="342.997484118"/>
      <point x="248.298990371" y="342.997484118" type="curve" smooth="yes"/>
      <point x="392.697535548" y="342.997484118"/>
      <point x="473.321623995" y="415.9149701"/>
      <point x="473.321623995" y="524.316009011" type="curve"/>
    </contour>
    <contour>
      <point x="892.429554963" y="704.602360848" type="line"/>
      <point x="732.553960535" y="704.602360848" type="line"/>
      <point x="182.153079464" y="-8.71037155514" type="line"/>
      <point x="342.770918283" y="-8.71037155514" type="line"/>
    </contour>
    <contour>
      <point x="248.298990371" y="440.052251016" type="line"/>
      <point x="196.979131139" y="440.052251016"/>
      <point x="162.187072525" y="472.578147501"/>
      <point x="162.187072525" y="525.573764621" type="curve" smooth="yes"/>
      <point x="162.187072525" y="579.887056237"/>
      <point x="197.494217161" y="611.352608637"/>
      <point x="248.298990371" y="611.352608637" type="curve" smooth="yes"/>
      <point x="299.073591539" y="611.352608637"/>
      <point x="334.30497506" y="579.887056237"/>
      <point x="334.30497506" y="525.573764621" type="curve" smooth="yes"/>
      <point x="334.30497506" y="474.638491586"/>
      <point x="302.785126846" y="440.052251016"/>
      <point x="249.298990371" y="440.052251016" type="curve"/>
    </contour>
    <contour>
      <point x="1055.06340206" y="169.803013674" type="line"/>
      <point x="1055.06340206" y="282.14274626"/>
      <point x="974.547372761" y="352.894380198"/>
      <point x="830.374285161" y="352.894380198" type="curve" smooth="yes"/>
      <point x="685.276958676" y="352.894380198"/>
      <point x="605.094321126" y="282.14274626"/>
      <point x="605.094321126" y="169.803013674" type="curve" smooth="yes"/>
      <point x="605.094321126" y="62.9778300671"/>
      <point x="682.884798658" y="-12.5155112194"/>
      <point x="830.374285161" y="-12.5155112194" type="curve" smooth="yes"/>
      <point x="974.287916359" y="-12.5155112194"/>
      <point x="1055.06340206" y="60.5533720163"/>
      <point x="1055.06340206" y="168.803013674" type="curve"/>
    </contour>
    <contour>
      <point x="830.374285161" y="84.5392556781" type="line"/>
      <point x="778.56951195" y="84.5392556781"/>
      <point x="743.853214451" y="117.216549417"/>
      <point x="743.853214451" y="170.060769283" type="curve" smooth="yes"/>
      <point x="743.853214451" y="224.449822015"/>
      <point x="779.084597971" y="255.8396133"/>
      <point x="830.374285161" y="255.8396133" type="curve" smooth="yes"/>
      <point x="880.66397235" y="255.8396133"/>
      <point x="915.971116986" y="224.449822015"/>
      <point x="915.971116986" y="170.060769283" type="curve" smooth="yes"/>
      <point x="915.971116986" y="119.276893503"/>
      <point x="884.784660521" y="84.5392556781"/>
      <point x="831.374285161" y="84.5392556781" type="curve"/>
    </contour>
  </outline>
</glyph>
<glyph name="ampersand" format="1">
  <advance width="896.287001843"/>
  <unicode hex="0026"/>
  <outline>
    <contour>
      <point x="840.758873471" y="-0.0757611152852" type="line"/>
      <point x="799.581416661" y="38.0779020667"/>
      <point x="763.009750378" y="75.3833356064"/>
      <point x="718.122323212" y="119.989174575" type="curve"/>
      <point x="772.28441326" y="172.987708775"/>
      <point x="827.142934939" y="248.984644545"/>
      <point x="829.035338122" y="356.106971933" type="curve"/>
      <point x="668.069828009" y="356.106971933" type="line"/>
      <point x="663.086908698" y="299.674767648"/>
      <point x="639.17009831" y="253.214142381"/>
      <point x="612.966348777" y="223.763943609" type="curve"/>
      <point x="570.223158555" y="262.362100474"/>
      <point x="529.280793998" y="307.474788147"/>
      <point x="491.109993651" y="349.253912039" type="curve"/>
      <point x="605.71952621" y="394.982813296"/>
      <point x="655.697018038" y="447.861287863"/>
      <point x="655.697018038" y="526.814398755" type="curve" smooth="yes"/>
      <point x="655.697018038" y="621.669319724"/>
      <point x="564.403706749" y="673.924238885"/>
      <point x="413.449135563" y="673.924238885" type="curve" smooth="yes"/>
      <point x="233.071926054" y="673.924238885"/>
      <point x="169.468635063" y="600.63195462"/>
      <point x="169.468635063" y="516.663463832" type="curve" smooth="yes"/>
      <point x="169.468635063" y="456.739062837"/>
      <point x="201.766940327" y="409.302554035"/>
      <point x="237.251630178" y="367.238810191" type="curve"/>
      <point x="114.505679063" y="316.602700029"/>
      <point x="59.0584779093" y="261.284977091"/>
      <point x="59.0584779093" y="167.227771946" type="curve" smooth="yes"/>
      <point x="59.0584779093" y="60.6254110982"/>
      <point x="144.489652552" y="-14.0"/>
      <point x="324.5549079" y="-14.0" type="curve" smooth="yes"/>
      <point x="433.952683717" y="-14.0"/>
      <point x="512.408789914" y="9.02610434415"/>
      <point x="556.267910209" y="33.2039940067" type="curve"/>
      <point x="560.115962781" y="33.2039940067" type="line"/>
      <point x="574.745056067" y="20.2383455904"/>
      <point x="587.239845924" y="9.861692273"/>
      <point x="598.916880228" y="-0.0757611152852" type="curve"/>
    </contour>
    <contour>
      <point x="353.694179849" y="523.02691578" type="line"/>
      <point x="353.694179849" y="556.431536787"/>
      <point x="377.278210239" y="574.88191263"/>
      <point x="416.08489662" y="574.88191263" type="curve" smooth="yes"/>
      <point x="461.452547451" y="574.88191263"/>
      <point x="484.762453827" y="551.718151269"/>
      <point x="484.762453827" y="520.602519305" type="curve" smooth="yes"/>
      <point x="484.762453827" y="485.775928477"/>
      <point x="455.787916214" y="457.050218254"/>
      <point x="406.242886935" y="435.691423139" type="curve"/>
      <point x="369.310758226" y="472.428525749"/>
      <point x="353.694179849" y="492.880125093"/>
      <point x="353.694179849" y="522.02691578" type="curve"/>
    </contour>
    <contour>
      <point x="256.195597251" y="177.25491916" type="line"/>
      <point x="256.195597251" y="220.141389915"/>
      <point x="277.08129553" y="249.331768662"/>
      <point x="323.804227163" y="273.795333183" type="curve"/>
      <point x="359.794295476" y="229.9080383"/>
      <point x="430.474055652" y="161.481023794"/>
      <point x="468.204654429" y="123.592288937" type="curve"/>
      <point x="440.27551751" y="101.494339931"/>
      <point x="395.289937998" y="90.4513672751"/>
      <point x="357.862308973" y="90.4513672751" type="curve" smooth="yes"/>
      <point x="310.762903206" y="90.4513672751"/>
      <point x="256.195597251" y="117.377205033"/>
      <point x="256.195597251" y="176.25491916" type="curve"/>
    </contour>
  </outline>
</glyph>
<glyph name="parenleft" format="1">
  <advance width="537.761502048"/>
  <unicode hex="0028"/>
  <outline>
    <contour>
      <point x="505.388238628" y="-96.4571674923" type="line"/>
      <point x="457.46876294" y="-61.3662913947"/>
      <point x="411.913938258" y="-24.1415239309"/>
      <point x="378.888704657" y="32.0532485614" type="curve" smooth="yes"/>
      <point x="341.578434215" y="100.515947725"/>
      <point x="322.050592369" y="183.90402691"/>
      <point x="322.050592369" y="289.681900305" type="curve" smooth="yes"/>
      <point x="322.050592369" y="400.732318245"/>
      <point x="342.123878831" y="484.681135926"/>
      <point x="378.813193495" y="549.204632025" type="curve" smooth="yes"/>
      <point x="412.580671487" y="606.68684357"/>
      <point x="457.847568517" y="644.35093594"/>
      <point x="505.539760859" y="678.759962" type="curve"/>
      <point x="456.486575699" y="766.378555623" type="line"/>
      <point x="360.540873806" y="729.820558521"/>
      <point x="288.040986515" y="686.804641583"/>
      <point x="229.709103528" y="619.622434711" type="curve" smooth="yes"/>
      <point x="161.151999784" y="541.078903708"/>
      <point x="118.879285822" y="432.625323697"/>
      <point x="118.727763592" y="290.712072348" type="curve" smooth="yes"/>
      <point x="118.576241361" y="163.372751825"/>
      <point x="151.57740694" y="55.03984685"/>
      <point x="218.271152925" y="-27.3963504239" type="curve" smooth="yes"/>
      <point x="283.390345469" y="-104.623635596"/>
      <point x="365.873303316" y="-149.138783193"/>
      <point x="456.335053469" y="-184.075761115" type="curve"/>
    </contour>
  </outline>
</glyph>
<glyph name="parenright" format="1">
  <advance width="537.761502048"/>
  <unicode hex="0029"/>
  <outline>
    <contour>
      <point x="81.4264485797" y="-184.075761115" type="line"/>
      <point x="171.630443123" y="-149.138783193"/>
      <point x="254.11340097" y="-104.623635596"/>
      <point x="319.490349123" y="-27.3963504239" type="curve" smooth="yes"/>
      <point x="385.926339499" y="55.03984685"/>
      <point x="419.109624549" y="163.372751825"/>
      <point x="418.882341203" y="290.712072348" type="curve" smooth="yes"/>
      <point x="418.730818972" y="432.625323697"/>
      <point x="377.018780105" y="541.078903708"/>
      <point x="307.901001267" y="619.622434711" type="curve" smooth="yes"/>
      <point x="249.462759923" y="686.804641583"/>
      <point x="177.220628242" y="729.820558521"/>
      <point x="81.2749263492" y="766.378555623" type="curve"/>
      <point x="31.9639855797" y="678.759962" type="line"/>
      <point x="80.1716891416" y="644.35093594"/>
      <point x="125.180830561" y="606.68684357"/>
      <point x="158.690552944" y="549.204632025" type="curve" smooth="yes"/>
      <point x="195.637623217" y="484.681135926"/>
      <point x="215.71090968" y="400.732318245"/>
      <point x="215.71090968" y="289.681900305" type="curve" smooth="yes"/>
      <point x="215.71090968" y="183.90402691"/>
      <point x="196.440823443" y="100.515947725"/>
      <point x="158.615041782" y="32.0532485614" type="curve" smooth="yes"/>
      <point x="125.665569296" y="-24.1415239309"/>
      <point x="80.550494718" y="-61.3662913947"/>
      <point x="32.1155078103" y="-96.4571674923" type="curve"/>
    </contour>
  </outline>
</glyph>
<glyph name="comma" format="1">
  <advance width="382.609831023"/>
  <unicode hex="002C"/>
  <outline>
    <contour>
      <point x="50.7107826152" y="-142.693239428" type="line"/>
      <point x="164.17838201" y="-142.693239428" type="line"/>
      <point x="296.52647904" y="164.176730662" type="line"/>
      <point x="99.5070714808" y="164.176730662" type="line"/>
    </contour>
  </outline>
</glyph>
<glyph name="hyphen" format="1">
  <advance width="566.62479446"/>
  <unicode hex="002D"/>
  <outline>
    <contour>
      <point x="96.5671153447" y="320.950569839" type="line"/>
      <point x="96.5671153447" y="176.42811076" type="line"/>
      <point x="470.209076369" y="176.42811076" type="line"/>
      <point x="470.209076369" y="320.950569839" type="line"/>
    </contour>
  </outline>
</glyph>
<glyph name="period" format="1">
  <advance width="382.609831023"/>
  <unicode hex="002E"/>
  <outline>
    <contour>
      <point x="98.1441212668" y="154.2841631" type="line"/>
      <point x="98.1441212668" y="0.0" type="line"/>
      <point x="284.61710701" y="0.0" type="line"/>
      <point x="284.61710701" y="154.2841631" type="line"/>
    </contour>
  </outline>
</glyph>
<glyph name="slash" format="1">
  <advance width="604.283177702"/>
  <unicode hex="002F"/>
  <outline>
    <contour>
      <point x="603.022590742" y="739.0" type="line"/>
      <point x="450.873161656" y="739.0" type="line"/>
      <point x="21.8794951087" y="-12.0" type="line"/>
      <point x="174.180321449" y="-12.0" type="line"/>
    </contour>
  </outline>
</glyph>
<glyph name="zero" format="1">
  <advance width="961.97041448"/>
  <unicode hex="0030"/>
  <outline>
    <contour>
      <point x="43.626506791" y="346.151397254" type="line"/>
      <point x="43.626506791" y="123.584837825"/>
      <point x="192.078791684" y="-13.1816942731"/>
      <point x="480.416942041" y="-13.1816942731" type="curve" smooth="yes"/>
      <point x="787.33218799" y="-13.1816942731"/>
      <point x="918.162213416" y="136.907266037"/>
      <point x="918.162213416" y="346.151397254" type="curve" smooth="yes"/>
      <point x="918.162213416" y="563.743677058"/>
      <point x="777.470642866" y="705.0"/>
      <point x="480.416942041" y="705.0" type="curve" smooth="yes"/>
      <point x="185.788124464" y="705.0"/>
      <point x="43.626506791" y="565.214874799"/>
      <point x="43.626506791" y="347.151397254" type="curve"/>
    </contour>
    <contour>
      <point x="480.416942041" y="573.879857253" type="line"/>
      <point x="596.660703625" y="573.879857253"/>
      <point x="713.811763785" y="509.206304723"/>
      <point x="713.811763785" y="345.924664083" type="curve" smooth="yes"/>
      <point x="713.811763785" y="195.473150408"/>
      <point x="627.655830855" y="117.938448474"/>
      <point x="480.416942041" y="117.938448474" type="curve" smooth="yes"/>
      <point x="338.693027405" y="117.938448474"/>
      <point x="247.825559168" y="192.198938994"/>
      <point x="247.825559168" y="345.924664083" type="curve" smooth="yes"/>
      <point x="247.825559168" y="511.010593991"/>
      <point x="364.461533307" y="573.879857253"/>
      <point x="479.416942041" y="573.879857253" type="curve"/>
    </contour>
  </outline>
</glyph>
<glyph name="one" format="1">
  <advance width="815.995565244"/>
  <unicode hex="0031"/>
  <outline>
    <contour>
      <point x="128.420048316" y="542.859732394" type="line"/>
      <point x="195.912286255" y="402.286471968" type="line"/>
      <point x="378.611242626" y="491.943178896" type="line"/>
      <point x="378.611242626" y="0.0" type="line"/>
      <point x="577.627987153" y="0.0" type="line"/>
      <point x="577.627987153" y="698.0" type="line"/>
      <point x="436.031456564" y="698.0" type="line"/>
    </contour>
  </outline>
</glyph>
<glyph name="two" format="1">
  <advance width="956.815302286"/>
  <unicode hex="0032"/>
  <outline>
    <contour>
      <point x="846.295363137" y="144.607259252" type="line"/>
      <point x="370.971203309" y="144.607259252" type="line"/>
      <point x="420.934102234" y="273.069242321"/>
      <point x="839.129835755" y="254.827764622"/>
      <point x="839.129835755" y="510.438321438" type="curve" smooth="yes"/>
      <point x="839.129835755" y="627.362377866"/>
      <point x="709.033732328" y="705.0"/>
      <point x="505.124354439" y="705.0" type="curve" smooth="yes"/>
      <point x="291.611791859" y="705.0"/>
      <point x="180.292985826" y="618.425902848"/>
      <point x="120.137495168" y="500.638187056" type="curve"/>
      <point x="337.84745812" y="486.170739562" type="line"/>
      <point x="360.296161265" y="535.383479831"/>
      <point x="405.070889237" y="573.879857253"/>
      <point x="495.00347789" y="573.879857253" type="curve" smooth="yes"/>
      <point x="607.938012189" y="573.879857253"/>
      <point x="634.521630515" y="534.979146354"/>
      <point x="634.521630515" y="503.301902882" type="curve" smooth="yes"/>
      <point x="634.521630515" y="383.372525585"/>
      <point x="196.567508328" y="368.790979147"/>
      <point x="105.262196673" y="9.0" type="curve"/>
      <point x="121.172057303" y="0.0" type="line"/>
      <point x="846.295363137" y="0.0" type="line"/>
    </contour>
  </outline>
</glyph>
<glyph name="three" format="1">
  <advance width="957.846324725"/>
  <unicode hex="0033"/>
  <outline>
    <contour>
      <point x="405.80303152" y="289.294793568" type="line"/>
      <point x="542.442363303" y="286.795926533"/>
      <point x="643.507002306" y="260.240809378"/>
      <point x="643.507002306" y="195.77145602" type="curve" smooth="yes"/>
      <point x="643.507002306" y="155.871008209"/>
      <point x="599.687173862" y="119.635228768"/>
      <point x="477.914947373" y="119.635228768" type="curve" smooth="yes"/>
      <point x="390.819536041" y="119.635228768"/>
      <point x="340.317454534" y="170.070200715"/>
      <point x="325.610471872" y="215.901170328" type="curve"/>
      <point x="107.400289753" y="191.9657383" type="line"/>
      <point x="137.195739088" y="85.9931168542"/>
      <point x="241.452811772" y="-13.0301720426"/>
      <point x="480.233897464" y="-13.0301720426" type="curve" smooth="yes"/>
      <point x="729.408241578" y="-13.0301720426"/>
      <point x="848.115207546" y="65.8601182839"/>
      <point x="848.115207546" y="189.622483152" type="curve" smooth="yes"/>
      <point x="848.115207546" y="301.770764524"/>
      <point x="738.850870744" y="355.666419873"/>
      <point x="625.273790175" y="364.077273529" type="curve"/>
      <point x="625.273790175" y="365.410790254" type="line"/>
      <point x="740.564330972" y="380.548245758"/>
      <point x="809.997281559" y="437.743167227"/>
      <point x="809.997281559" y="523.3498439" type="curve" smooth="yes"/>
      <point x="809.997281559" y="645.411204587"/>
      <point x="668.974388058" y="705.0"/>
      <point x="470.718022622" y="705.0" type="curve" smooth="yes"/>
      <point x="277.55359638" y="705.0"/>
      <point x="159.161141646" y="620.32377109"/>
      <point x="125.40946648" y="511.701345418" type="curve"/>
      <point x="340.601917199" y="492.189396067" type="line"/>
      <point x="353.280529588" y="535.03814779"/>
      <point x="390.664798777" y="573.879857253"/>
      <point x="483.517411024" y="573.879857253" type="curve" smooth="yes"/>
      <point x="581.94486607" y="573.879857253"/>
      <point x="610.466301407" y="541.826583522"/>
      <point x="610.466301407" y="508.969072617" type="curve" smooth="yes"/>
      <point x="610.466301407" y="462.787620643"/>
      <point x="540.397725604" y="427.27889269"/>
      <point x="405.80303152" y="423.370923058" type="curve"/>
    </contour>
  </outline>
</glyph>
<glyph name="four" format="1">
  <advance width="963.441187023"/>
  <unicode hex="0034"/>
  <outline>
    <contour>
      <point x="97.869986388" y="267.054600692" type="line"/>
      <point x="97.869986388" y="142.647694044" type="line"/>
      <point x="534.519606625" y="142.647694044" type="line"/>
      <point x="534.519606625" y="0.0" type="line"/>
      <point x="733.309192783" y="0.0" type="line"/>
      <point x="733.309192783" y="142.647694044" type="line"/>
      <point x="850.677745543" y="142.647694044" type="line"/>
      <point x="850.677745543" y="276.568299276" type="line"/>
      <point x="733.309192783" y="276.568299276" type="line"/>
      <point x="733.309192783" y="698.0" type="line"/>
      <point x="530.632989891" y="698.0" type="line"/>
    </contour>
    <contour>
      <point x="309.932981886" y="276.568299276" type="line"/>
      <point x="432.039384406" y="405.213096024" type="line" smooth="yes"/>
      <point x="467.154419582" y="444.453517338"/>
      <point x="500.904915593" y="482.404185229"/>
      <point x="533.292148035" y="523.492233916" type="curve"/>
      <point x="537.322620299" y="523.492233916" type="line"/>
      <point x="535.292448256" y="484.467643813"/>
      <point x="534.519606625" y="441.257894449"/>
      <point x="534.519606625" y="399.580537308" type="curve" smooth="yes"/>
      <point x="534.519606625" y="276.568299276" type="line"/>
    </contour>
  </outline>
</glyph>
<glyph name="five" format="1">
  <advance width="960.681636432"/>
  <unicode hex="0035"/>
  <outline>
    <contour>
      <point x="135.38164594" y="303.965019879" type="line"/>
      <point x="316.987160054" y="278.585761009" type="line"/>
      <point x="352.569542188" y="302.642925368"/>
      <point x="392.92158761" y="320.503504157"/>
      <point x="471.356422711" y="320.503504157" type="curve" smooth="yes"/>
      <point x="558.149177646" y="320.503504157"/>
      <point x="641.992203372" y="285.314740629"/>
      <point x="641.992203372" y="217.409891417" type="curve" smooth="yes"/>
      <point x="641.992203372" y="152.626457622"/>
      <point x="598.631410516" y="116.618347765"/>
      <point x="470.918261557" y="116.618347765" type="curve" smooth="yes"/>
      <point x="370.929142911" y="116.618347765"/>
      <point x="329.971670584" y="149.478286709"/>
      <point x="298.661260205" y="201.41935406" type="curve"/>
      <point x="94.2371754493" y="171.302889776" type="line"/>
      <point x="156.331221673" y="63.1388819013"/>
      <point x="271.702132862" y="-12.0"/>
      <point x="477.872560642" y="-12.0" type="curve" smooth="yes"/>
      <point x="734.331881846" y="-12.0"/>
      <point x="846.70634177" y="93.4755125627"/>
      <point x="846.70634177" y="225.911149358" type="curve" smooth="yes"/>
      <point x="846.70634177" y="394.637855837"/>
      <point x="653.610986497" y="450.850380075"/>
      <point x="516.216936928" y="450.850380075" type="curve" smooth="yes"/>
      <point x="432.215184603" y="450.850380075"/>
      <point x="375.572270448" y="435.700834859"/>
      <point x="326.336869496" y="411.718340746" type="curve"/>
      <point x="322.533855823" y="411.718340746" type="line"/>
      <point x="352.982756385" y="552.545726952" type="line"/>
      <point x="759.864696998" y="552.545726952" type="line"/>
      <point x="789.880043414" y="692.0" type="line"/>
      <point x="219.177848789" y="692.0" type="line"/>
    </contour>
  </outline>
</glyph>
<glyph name="six" format="1">
  <advance width="960.423880822"/>
  <unicode hex="0036"/>
  <outline>
    <contour>
      <point x="298.603068378" y="387.622956505" type="line"/>
      <point x="313.268065508" y="514.397289012"/>
      <point x="369.389062376" y="573.879857253"/>
      <point x="487.277459255" y="573.879857253" type="curve" smooth="yes"/>
      <point x="563.786902584" y="573.879857253"/>
      <point x="603.244081036" y="541.729299531"/>
      <point x="634.478855277" y="501.096416594" type="curve"/>
      <point x="838.781289622" y="533.712549869" type="line"/>
      <point x="754.463333543" y="660.43621085"/>
      <point x="631.105575283" y="705.0"/>
      <point x="479.219778201" y="705.0" type="curve" smooth="yes"/>
      <point x="237.847799643" y="705.0"/>
      <point x="94.1462603917" y="550.411359714"/>
      <point x="94.1462603917" y="333.040444295" type="curve" smooth="yes"/>
      <point x="94.1462603917" y="88.8390956956"/>
      <point x="226.081415027" y="-12.0"/>
      <point x="495.218180213" y="-12.0" type="curve" smooth="yes"/>
      <point x="753.683364079" y="-12.0"/>
      <point x="876.898139702" y="106.09248095"/>
      <point x="876.898139702" y="227.184072044" type="curve" smooth="yes"/>
      <point x="876.898139702" y="361.987822445"/>
      <point x="749.639603487" y="448.60463991"/>
      <point x="508.308625846" y="448.60463991" type="curve" smooth="yes"/>
      <point x="415.314782021" y="448.60463991"/>
      <point x="339.267453757" y="418.629352436"/>
      <point x="302.951765314" y="387.622956505" type="curve"/>
    </contour>
    <contour>
      <point x="300.041529754" y="232.86556794" type="line"/>
      <point x="300.041529754" y="281.010120794"/>
      <point x="411.172112739" y="317.484497163"/>
      <point x="484.961336574" y="317.484497163" type="curve" smooth="yes"/>
      <point x="620.988168868" y="317.484497163"/>
      <point x="672.289934462" y="272.355765749"/>
      <point x="672.289934462" y="217.241363206" type="curve" smooth="yes"/>
      <point x="672.289934462" y="166.485956849"/>
      <point x="600.093720731" y="119.120142747"/>
      <point x="486.203111845" y="119.120142747" type="curve" smooth="yes"/>
      <point x="363.54651565" y="119.120142747"/>
      <point x="300.041529754" y="180.468138548"/>
      <point x="300.041529754" y="231.86556794" type="curve"/>
    </contour>
  </outline>
</glyph>
<glyph name="seven" format="1">
  <advance width="820.77944679"/>
  <unicode hex="0037"/>
  <outline>
    <contour>
      <point x="713.645793809" y="692.0" type="line"/>
      <point x="86.774814811" y="692.0" type="line"/>
      <point x="86.774814811" y="546.331121068" type="line"/>
      <point x="478.787020098" y="546.331121068" type="line"/>
      <point x="478.787020098" y="542.012170977" type="line"/>
      <point x="209.373063995" y="0.0" type="line"/>
      <point x="443.022772532" y="0.0" type="line"/>
      <point x="713.645793809" y="650.08633476" type="line"/>
    </contour>
  </outline>
</glyph>
<glyph name="eight" format="1">
  <advance width="959.650613993"/>
  <unicode hex="0038"/>
  <outline>
    <contour>
      <point x="289.420261074" y="359.486288282" type="line"/>
      <point x="183.97964479" y="344.950731294"/>
      <point x="88.6309859918" y="302.497403505"/>
      <point x="88.6309859918" y="187.002564323" type="curve" smooth="yes"/>
      <point x="88.6309859918" y="62.978868842"/>
      <point x="207.088134736" y="-11.8486027463"/>
      <point x="480.416091645" y="-11.8486027463" type="curve" smooth="yes"/>
      <point x="770.893021422" y="-11.8486027463"/>
      <point x="871.792469632" y="71.796087353"/>
      <point x="871.792469632" y="187.002564323" type="curve" smooth="yes"/>
      <point x="871.792469632" y="297.333602742"/>
      <point x="782.971225655" y="347.405361387"/>
      <point x="671.00319455" y="359.486288282" type="curve"/>
      <point x="671.00319455" y="361.774215934" type="line"/>
      <point x="782.181329603" y="372.82229462"/>
      <point x="846.357408015" y="429.456408806"/>
      <point x="846.357408015" y="517.061229788" type="curve" smooth="yes"/>
      <point x="846.357408015" y="638.045376695"/>
      <point x="684.974926925" y="705.0"/>
      <point x="480.416091645" y="705.0" type="curve" smooth="yes"/>
      <point x="253.491713732" y="705.0"/>
      <point x="113.959689253" y="626.830582433"/>
      <point x="113.959689253" y="517.061229788" type="curve" smooth="yes"/>
      <point x="113.959689253" y="434.82489973"/>
      <point x="177.689814832" y="375.796387693"/>
      <point x="289.420261074" y="361.774215934" type="curve"/>
    </contour>
    <contour>
      <point x="312.825036526" y="494.875980858" type="line"/>
      <point x="312.825036526" y="542.26499463"/>
      <point x="362.88634002" y="573.879857253"/>
      <point x="480.416091645" y="573.879857253" type="curve" smooth="yes"/>
      <point x="597.400710182" y="573.879857253"/>
      <point x="647.340663488" y="542.022894696"/>
      <point x="647.340663488" y="495.133736468" type="curve" smooth="yes"/>
      <point x="647.340663488" y="443.306587368"/>
      <point x="562.11793108" y="418.11187872"/>
      <point x="480.416091645" y="418.11187872" type="curve" smooth="yes"/>
      <point x="348.34210577" y="418.11187872"/>
      <point x="312.825036526" y="451.578022082"/>
      <point x="312.825036526" y="493.875980858" type="curve"/>
    </contour>
    <contour>
      <point x="292.830038369" y="202.927193099" type="line"/>
      <point x="292.830038369" y="259.437506791"/>
      <point x="371.341947755" y="292.142596186"/>
      <point x="480.416091645" y="292.142596186" type="curve" smooth="yes"/>
      <point x="613.683436306" y="292.142596186"/>
      <point x="666.820575624" y="255.544952363"/>
      <point x="666.820575624" y="202.927193099" type="curve" smooth="yes"/>
      <point x="666.820575624" y="143.753710316"/>
      <point x="562.254472786" y="119.27154"/>
      <point x="480.416091645" y="119.27154" type="curve" smooth="yes"/>
      <point x="385.488393434" y="119.27154"/>
      <point x="292.830038369" y="145.617368296"/>
      <point x="292.830038369" y="201.927193099" type="curve"/>
    </contour>
  </outline>
</glyph>
<glyph name="nine" format="1">
  <advance width="961.454903261"/>
  <unicode hex="0039"/>
  <outline>
    <contour>
      <point x="665.592840812" y="305.377043495" type="line"/>
      <point x="647.246480418" y="183.524870497"/>
      <point x="577.974395556" y="118.605056725"/>
      <point x="472.358311882" y="118.605056725" type="curve" smooth="yes"/>
      <point x="390.652482669" y="118.605056725"/>
      <point x="345.922905438" y="149.147884482"/>
      <point x="310.492795396" y="196.903656289" type="curve"/>
      <point x="103.614505745" y="163.954431487" type="line"/>
      <point x="183.931885381" y="44.9892225736"/>
      <point x="304.059083687" y="-12.0"/>
      <point x="471.068258239" y="-12.0" type="curve" smooth="yes"/>
      <point x="796.363144758" y="-12.0"/>
      <point x="869.716132073" y="208.528071454"/>
      <point x="869.716132073" y="370.627516087" type="curve" smooth="yes"/>
      <point x="869.716132073" y="590.89444593"/>
      <point x="715.671464858" y="705.0"/>
      <point x="468.447776101" y="705.0" type="curve" smooth="yes"/>
      <point x="186.515230315" y="705.0"/>
      <point x="87.2220083728" y="575.832080329"/>
      <point x="87.2220083728" y="470.481310881" type="curve" smooth="yes"/>
      <point x="87.2220083728" y="354.865817451"/>
      <point x="198.357682428" y="244.39536009"/>
      <point x="453.236092123" y="244.39536009" type="curve" smooth="yes"/>
      <point x="568.802979244" y="244.39536009"/>
      <point x="640.759541426" y="283.112440931"/>
      <point x="661.244143876" y="305.377043495" type="curve"/>
    </contour>
    <contour>
      <point x="663.487470963" y="456.952062635" type="line"/>
      <point x="663.487470963" y="408.595392127"/>
      <point x="560.599027314" y="375.515502837"/>
      <point x="478.901055891" y="375.515502837" type="curve" smooth="yes"/>
      <point x="339.481351294" y="375.515502837"/>
      <point x="291.905974729" y="422.143526485"/>
      <point x="291.905974729" y="476.000537041" type="curve" smooth="yes"/>
      <point x="291.905974729" y="527.545037937"/>
      <point x="362.421888412" y="573.879857253"/>
      <point x="477.401525011" y="573.879857253" type="curve" smooth="yes"/>
      <point x="589.256845457" y="573.879857253"/>
      <point x="663.487470963" y="516.578523222"/>
      <point x="663.487470963" y="457.952062635" type="curve"/>
    </contour>
  </outline>
</glyph>
<glyph name="colon" format="1">
  <advance width="382.609831023"/>
  <unicode hex="003A"/>
  <outline>
    <contour>
      <point x="98.1441212668" y="494.72841631" type="line"/>
      <point x="98.1441212668" y="340.44425321" type="line"/>
      <point x="284.61710701" y="340.44425321" type="line"/>
      <point x="284.61710701" y="494.72841631" type="line"/>
    </contour>
    <contour>
      <point x="98.1441212668" y="154.2841631" type="line"/>
      <point x="98.1441212668" y="0.0" type="line"/>
      <point x="284.61710701" y="0.0" type="line"/>
      <point x="284.61710701" y="154.2841631" type="line"/>
    </contour>
  </outline>
</glyph>
<glyph name="semicolon" format="1">
  <advance width="382.609831023"/>
  <unicode hex="003B"/>
  <outline>
    <contour>
      <point x="98.3714046127" y="494.72841631" type="line"/>
      <point x="98.3714046127" y="340.44425321" type="line"/>
      <point x="284.844390356" y="340.44425321" type="line"/>
      <point x="284.844390356" y="494.72841631" type="line"/>
    </contour>
    <contour>
      <point x="50.7107826152" y="-142.693239428" type="line"/>
      <point x="164.17838201" y="-142.693239428" type="line"/>
      <point x="296.52647904" y="154.2841631" type="line"/>
      <point x="99.5070714808" y="154.2841631" type="line"/>
    </contour>
  </outline>
</glyph>
<glyph name="question" format="1">
  <advance width="764.93900472"/>
  <unicode hex="003F"/>
  <outline>
    <contour>
      <point x="450.209214313" y="233.148371255" type="line"/>
      <point x="450.406389018" y="276.908236373"/>
      <point x="496.262971701" y="314.194821376"/>
      <point x="571.325990506" y="356.966234341" type="curve" smooth="yes"/>
      <point x="648.801802847" y="401.209358088"/>
      <point x="695.269839476" y="448.316391596"/>
      <point x="695.269839476" y="534.499663511" type="curve" smooth="yes"/>
      <point x="695.269839476" y="638.857014651"/>
      <point x="604.083603485" y="720.151710609"/>
      <point x="383.561787201" y="720.151710609" type="curve" smooth="yes"/>
      <point x="195.778906104" y="720.151710609"/>
      <point x="92.7255965286" y="643.900564192"/>
      <point x="37.069912972" y="524.989401258" type="curve"/>
      <point x="240.375748903" y="504.129493525" type="line"/>
      <point x="261.823888739" y="556.505895062"/>
      <point x="307.370807632" y="590.761796808"/>
      <point x="379.243087064" y="590.761796808" type="curve" smooth="yes"/>
      <point x="452.465641516" y="590.761796808"/>
      <point x="491.070787099" y="570.203999392"/>
      <point x="491.070787099" y="522.19477832" type="curve" smooth="yes"/>
      <point x="491.070787099" y="482.094376834"/>
      <point x="435.760023962" y="453.91373447"/>
      <point x="377.815742139" y="407.292692675" type="curve" smooth="yes"/>
      <point x="300.7509107" y="341.287817636"/>
      <point x="281.028072675" y="286.244318805"/>
      <point x="288.346047393" y="233.148371255" type="curve"/>
    </contour>
    <contour>
      <point x="276.828633869" y="154.2841631" type="line"/>
      <point x="276.828633869" y="0.0" type="line"/>
      <point x="463.150222358" y="0.0" type="line"/>
      <point x="463.150222358" y="154.2841631" type="line"/>
    </contour>
  </outline>
</glyph>
<glyph name="at" format="1">
  <advance width="948.937585877"/>
  <unicode hex="0040"/>
  <outline>
    <contour>
      <point x="671.611610402" y="130.889967552" type="line"/>
      <point x="613.070964732" y="110.453919697"/>
      <point x="544.411381951" y="96.8187590821"/>
      <point x="469.978922233" y="96.8187590821" type="curve" smooth="yes"/>
      <point x="336.224477735" y="96.8187590821"/>
      <point x="194.947637773" y="151.114758573"/>
      <point x="194.947637773" y="318.287552722" type="curve" smooth="yes"/>
      <point x="194.947637773" y="404.61297849"/>
      <point x="231.140009879" y="475.699467705"/>
      <point x="291.148362035" y="526.606301238" type="curve" smooth="yes"/>
      <point x="350.823322443" y="577.331140276"/>
      <point x="432.163979131" y="605.800812469"/>
      <point x="524.912388112" y="605.800812469" type="curve" smooth="yes"/>
      <point x="610.96227843" y="605.800812469"/>
      <point x="672.849543486" y="589.727653253"/>
      <point x="714.072350722" y="561.351261196" type="curve" smooth="yes"/>
      <point x="756.55124991" y="532.430299362"/>
      <point x="776.049818551" y="490.873701448"/>
      <point x="776.049818551" y="439.890718735" type="curve" smooth="yes"/>
      <point x="776.049818551" y="393.427514627"/>
      <point x="760.418048656" y="347.689022753"/>
      <point x="732.846634154" y="307.508278027" type="curve" smooth="yes"/>
      <point x="709.774875508" y="273.88838364"/>
      <point x="681.871044631" y="258.267189216"/>
      <point x="663.086663463" y="258.524944826" type="curve" smooth="yes"/>
      <point x="639.136568362" y="258.267189216"/>
      <point x="635.655420034" y="272.764618105"/>
      <point x="647.063034215" y="317.972957416" type="curve" smooth="yes"/>
      <point x="701.63432374" y="530.706976391" type="line"/>
      <point x="575.86944428" y="530.706976391" type="line"/>
      <point x="570.067419113" y="506.437681245" type="line"/>
      <point x="567.552333092" y="506.437681245" type="line"/>
      <point x="553.05346423" y="524.526520579"/>
      <point x="529.146981186" y="532.328420769"/>
      <point x="493.195395843" y="532.328420769" type="curve" smooth="yes"/>
      <point x="445.958960212" y="532.328420769"/>
      <point x="395.070044631" y="512.66410106"/>
      <point x="350.087311873" y="468.331158952" type="curve" smooth="yes"/>
      <point x="295.771661005" y="416.437164993"/>
      <point x="276.744191396" y="358.6647096"/>
      <point x="276.744191396" y="291.515824575" type="curve" smooth="yes"/>
      <point x="276.744191396" y="220.108169607"/>
      <point x="321.681411618" y="175.895137713"/>
      <point x="382.223920634" y="175.895137713" type="curve" smooth="yes"/>
      <point x="440.097105829" y="175.895137713"/>
      <point x="496.319112937" y="216.301701812"/>
      <point x="515.192333439" y="254.236730372" type="curve"/>
      <point x="519.35903588" y="254.236730372" type="line"/>
      <point x="516.329727368" y="233.071641323"/>
      <point x="527.057906859" y="213.133210735"/>
      <point x="538.49668159" y="201.483571329" type="curve" smooth="yes"/>
      <point x="561.117827572" y="181.484871366"/>
      <point x="592.176509825" y="175.895137713"/>
      <point x="631.174861126" y="175.895137713" type="curve" smooth="yes"/>
      <point x="683.307778946" y="175.895137713"/>
      <point x="744.048576151" y="190.529735019"/>
      <point x="802.109048866" y="239.606786689" type="curve" smooth="yes"/>
      <point x="863.741874323" y="291.074621805"/>
      <point x="895.587951706" y="358.769702691"/>
      <point x="895.587951706" y="441.359790486" type="curve" smooth="yes"/>
      <point x="895.587951706" y="568.404532373"/>
      <point x="805.791665552" y="696.416791501"/>
      <point x="541.714215861" y="696.416791501" type="curve" smooth="yes"/>
      <point x="232.716264399" y="696.416791501"/>
      <point x="56.6361481181" y="526.477216124"/>
      <point x="56.6361481181" y="328.849579946" type="curve" smooth="yes"/>
      <point x="56.6361481181" y="152.888937254"/>
      <point x="183.213893536" y="6.27854116493"/>
      <point x="438.692066836" y="6.27854116493" type="curve" smooth="yes"/>
      <point x="541.339348911" y="6.27854116493"/>
      <point x="665.482613131" y="24.9307711615"/>
      <point x="725.765139568" y="62.2012934615" type="curve"/>
    </contour>
    <contour>
      <point x="421.086591647" y="321.975173077" type="line"/>
      <point x="421.086591647" y="357.666098863"/>
      <point x="439.054080793" y="395.376807773"/>
      <point x="460.23067042" y="419.251453289" type="curve"/>
      <point x="481.453212742" y="444.429506888"/>
      <point x="500.158941982" y="452.895913338"/>
      <point x="522.182271009" y="452.895913338" type="curve" smooth="yes"/>
      <point x="540.493589264" y="452.895913338"/>
      <point x="550.869630832" y="442.869256992"/>
      <point x="550.869630832" y="435.74932051" type="curve" smooth="yes"/>
      <point x="550.869630832" y="425.993434591"/>
      <point x="541.581966267" y="384.630395149"/>
      <point x="529.751044653" y="358.574467425" type="curve" smooth="yes"/>
      <point x="514.845300163" y="323.672926918"/>
      <point x="475.948051039" y="286.119659975"/>
      <point x="448.1831546" y="286.119659975" type="curve" smooth="yes"/>
      <point x="425.553248051" y="286.119659975"/>
      <point x="421.086591647" y="300.3440412"/>
      <point x="421.086591647" y="320.975173077" type="curve"/>
    </contour>
  </outline>
</glyph>
<glyph name="A" format="1">
  <advance width="920.789503705"/>
  <unicode hex="0041"/>
  <outline>
    <contour>
      <point x="614.996966725" y="161.609827206" type="line"/>
      <point x="671.055455942" y="0.0" type="line"/>
      <point x="901.689859292" y="0.0" type="line"/>
      <point x="604.558522974" y="709.0" type="line"/>
      <point x="316.079583478" y="709.0" type="line"/>
      <point x="20.1906473143" y="0.0" type="line"/>
      <point x="251.29467259" y="0.0" type="line"/>
      <point x="305.232412061" y="161.609827206" type="line"/>
    </contour>
    <contour>
      <point x="565.564439067" y="295.244630776" type="line"/>
      <point x="354.709978617" y="295.244630776" type="line"/>
      <point x="406.271689655" y="448.570886942" type="line" smooth="yes"/>
      <point x="421.858247234" y="494.491696147"/>
      <point x="439.27799053" y="543.836113006"/>
      <point x="454.197939857" y="600.760512175" type="curve"/>
      <point x="464.667750161" y="600.760512175" type="line"/>
      <point x="480.254182764" y="543.791074109"/>
      <point x="496.916376481" y="497.325256794"/>
      <point x="513.790436515" y="448.78342841" type="curve" smooth="yes"/>
    </contour>
  </outline>
</glyph>
<glyph name="B" format="1">
  <advance width="901.530261912"/>
  <unicode hex="0042"/>
  <outline>
    <contour>
      <point x="630.171558824" y="378.833610914" type="line"/>
      <point x="755.516505892" y="384.727489378"/>
      <point x="810.595332622" y="446.632273455"/>
      <point x="810.595332622" y="532.272609331" type="curve" smooth="yes"/>
      <point x="810.595332622" y="660.21897015"/>
      <point x="705.498807973" y="709.0"/>
      <point x="438.862910276" y="709.0" type="curve" smooth="yes"/>
      <point x="80.3422912487" y="709.0" type="line"/>
      <point x="80.3422912487" y="0.0" type="line"/>
      <point x="497.815240537" y="0.0" type="line" smooth="yes"/>
      <point x="709.242784524" y="0.0"/>
      <point x="860.300042143" y="40.4759872059"/>
      <point x="860.300042143" y="199.576218928" type="curve" smooth="yes"/>
      <point x="860.300042143" y="290.411439138"/>
      <point x="801.775129128" y="365.466996027"/>
      <point x="630.171558824" y="374.515086021" type="curve"/>
    </contour>
    <contour>
      <point x="645.0854962" y="213.592876245" type="curve" smooth="yes"/>
      <point x="645.0854962" y="151.347623952"/>
      <point x="580.339647604" y="133.63480357"/>
      <point x="451.337660847" y="133.63480357" type="curve" smooth="yes"/>
      <point x="289.890040561" y="133.63480357" type="line"/>
      <point x="289.890040561" y="296.978458068" type="line"/>
      <point x="453.805305758" y="296.978458068" type="line" smooth="yes"/>
      <point x="574.922759658" y="296.978458068"/>
      <point x="645.0854962" y="267.222301849"/>
    </contour>
    <contour>
      <point x="598.9136041" y="504.981964284" type="curve" smooth="yes"/>
      <point x="598.9136041" y="458.075550122"/>
      <point x="550.952103034" y="430.689022753"/>
      <point x="449.443830825" y="430.689022753" type="curve" smooth="yes"/>
      <point x="289.890040561" y="430.689022753" type="line"/>
      <point x="289.890040561" y="575.36519643" type="line"/>
      <point x="447.959217067" y="575.36519643" type="line" smooth="yes"/>
      <point x="547.683259354" y="575.36519643"/>
      <point x="598.9136041" y="551.598261401"/>
    </contour>
  </outline>
</glyph>
<glyph name="C" format="1">
  <advance width="959.620705038"/>
  <unicode hex="0043"/>
  <outline>
    <contour>
      <point x="693.906378823" y="259.741672698" type="line"/>
      <point x="675.958596264" y="194.758650464"/>
      <point x="607.583241718" y="118.89255918"/>
      <point x="490.171138032" y="118.89255918" type="curve" smooth="yes"/>
      <point x="368.111683485" y="118.89255918"/>
      <point x="263.279402267" y="194.595477796"/>
      <point x="263.279402267" y="353.484488781" type="curve" smooth="yes"/>
      <point x="263.279402267" y="505.707266001"/>
      <point x="354.521759185" y="589.592354799"/>
      <point x="492.473382364" y="589.592354799" type="curve" smooth="yes"/>
      <point x="604.221404988" y="589.592354799"/>
      <point x="659.523861136" y="535.704878749"/>
      <point x="688.969800273" y="462.468479691" type="curve"/>
      <point x="908.649304095" y="488.039672776" type="line"/>
      <point x="855.055641417" y="637.280747844"/>
      <point x="701.209901294" y="723.0"/>
      <point x="493.064654699" y="723.0" type="curve" smooth="yes"/>
      <point x="379.740974069" y="723.0"/>
      <point x="273.117148829" y="696.319388423"/>
      <point x="190.096650329" y="641.23260037" type="curve" smooth="yes"/>
      <point x="103.133206172" y="581.096383327"/>
      <point x="47.8071007142" y="487.322141125"/>
      <point x="47.8071007142" y="357.835311707" type="curve" smooth="yes"/>
      <point x="47.8071007142" y="212.948030686"/>
      <point x="104.650418184" y="120.326411064"/>
      <point x="190.627203648" y="62.6615914486" type="curve" smooth="yes"/>
      <point x="273.967890701" y="8.31483395172"/>
      <point x="388.395593144" y="-14.0"/>
      <point x="491.535251998" y="-14.0" type="curve" smooth="yes"/>
      <point x="677.181362547" y="-14.0"/>
      <point x="853.479071558" y="73.7791411215"/>
      <point x="916.010765895" y="225.262619997" type="curve"/>
    </contour>
  </outline>
</glyph>
<glyph name="D" format="1">
  <advance width="945.594657731"/>
  <unicode hex="0044"/>
  <outline>
    <contour>
      <point x="900.880624333" y="360.000738554" type="curve" smooth="yes"/>
      <point x="900.880624333" y="573.043234478"/>
      <point x="771.342225978" y="709.0"/>
      <point x="448.422259065" y="709.0" type="curve" smooth="yes"/>
      <point x="80.3422912487" y="709.0" type="line"/>
      <point x="80.3422912487" y="0.0" type="line"/>
      <point x="455.891218973" y="0.0" type="line" smooth="yes"/>
      <point x="790.210837359" y="0.0"/>
      <point x="900.880624333" y="144.524518181"/>
    </contour>
    <contour>
      <point x="685.559720035" y="355.181269075" type="curve" smooth="yes"/>
      <point x="685.559720035" y="196.345617839"/>
      <point x="591.551567684" y="133.63480357"/>
      <point x="435.380957281" y="133.63480357" type="curve" smooth="yes"/>
      <point x="289.890040561" y="133.63480357" type="line"/>
      <point x="289.890040561" y="575.36519643" type="line"/>
      <point x="431.154335953" y="575.36519643" type="line" smooth="yes"/>
      <point x="626.74527019" y="575.36519643"/>
      <point x="685.559720035" y="475.95906928"/>
    </contour>
  </outline>
</glyph>
<glyph name="E" format="1">
  <advance width="772.051386511"/>
  <unicode hex="0045"/>
  <outline>
    <contour>
      <point x="289.890040561" y="422.793871906" type="line"/>
      <point x="289.890040561" y="575.36519643" type="line"/>
      <point x="700.191306364" y="575.36519643" type="line"/>
      <point x="700.191306364" y="709.0" type="line"/>
      <point x="80.3422912487" y="709.0" type="line"/>
      <point x="80.3422912487" y="0.0" type="line"/>
      <point x="710.415963812" y="0.0" type="line"/>
      <point x="710.415963812" y="133.63480357" type="line"/>
      <point x="289.890040561" y="133.63480357" type="line"/>
      <point x="289.890040561" y="289.007671082" type="line"/>
      <point x="583.195250938" y="289.007671082" type="line"/>
      <point x="583.195250938" y="422.793871906" type="line"/>
    </contour>
  </outline>
</glyph>
<glyph name="F" format="1">
  <advance width="734.514854269"/>
  <unicode hex="0046"/>
  <outline>
    <contour>
      <point x="289.890040561" y="0.0" type="line"/>
      <point x="289.890040561" y="289.309360202" type="line"/>
      <point x="582.785973097" y="289.309360202" type="line"/>
      <point x="582.785973097" y="423.019924887" type="line"/>
      <point x="289.890040561" y="423.019924887" type="line"/>
      <point x="289.890040561" y="575.36519643" type="line"/>
      <point x="678.938800282" y="575.36519643" type="line"/>
      <point x="678.938800282" y="709.0" type="line"/>
      <point x="80.3422912487" y="709.0" type="line"/>
      <point x="80.3422912487" y="0.0" type="line"/>
    </contour>
  </outline>
</glyph>
<glyph name="G" format="1">
  <advance width="966.86434548"/>
  <unicode hex="0047"/>
  <outline>
    <contour>
      <point x="900.212605088" y="385.490076642" type="line"/>
      <point x="524.392597234" y="385.490076642" type="line"/>
      <point x="524.392597234" y="251.779511957" type="line"/>
      <point x="696.001962464" y="251.779511957" type="line"/>
      <point x="696.001962464" y="152.595125481" type="line"/>
      <point x="662.755549978" y="135.94966379"/>
      <point x="592.985359248" y="118.89255918"/>
      <point x="498.944293018" y="118.89255918" type="curve" smooth="yes"/>
      <point x="354.11508507" y="118.89255918"/>
      <point x="263.279402267" y="206.652090596"/>
      <point x="263.279402267" y="355.363688768" type="curve" smooth="yes"/>
      <point x="263.279402267" y="521.643913433"/>
      <point x="389.560612142" y="590.10744082"/>
      <point x="503.957235396" y="590.10744082" type="curve" smooth="yes"/>
      <point x="577.831906175" y="590.10744082"/>
      <point x="621.516519218" y="563.593544819"/>
      <point x="666.489123315" y="501.416428898" type="curve"/>
      <point x="887.380918651" y="546.151737929" type="line"/>
      <point x="795.506039995" y="662.637633322"/>
      <point x="639.823613539" y="723.0"/>
      <point x="500.776641472" y="723.0" type="curve" smooth="yes"/>
      <point x="226.714512777" y="723.0"/>
      <point x="47.8071007142" y="596.193941058"/>
      <point x="47.8071007142" y="358.047903442" type="curve" smooth="yes"/>
      <point x="47.8071007142" y="140.911678744"/>
      <point x="184.400312749" y="-14.0"/>
      <point x="492.400135305" y="-14.0" type="curve" smooth="yes"/>
      <point x="682.810103232" y="-14.0"/>
      <point x="833.707933431" y="53.0479709393"/>
      <point x="900.212605088" y="106.459577667" type="curve"/>
    </contour>
  </outline>
</glyph>
<glyph name="H" format="1">
  <advance width="963.892147906"/>
  <unicode hex="0048"/>
  <outline>
    <contour>
      <point x="883.625617772" y="709.0" type="line"/>
      <point x="674.07786846" y="709.0" type="line"/>
      <point x="674.07786846" y="430.748091244" type="line"/>
      <point x="289.890040561" y="430.748091244" type="line"/>
      <point x="289.890040561" y="709.0" type="line"/>
      <point x="80.3422912487" y="709.0" type="line"/>
      <point x="80.3422912487" y="0.0" type="line"/>
      <point x="289.890040561" y="0.0" type="line"/>
      <point x="289.890040561" y="296.96189042" type="line"/>
      <point x="674.07786846" y="296.96189042" type="line"/>
      <point x="674.07786846" y="0.0" type="line"/>
      <point x="883.625617772" y="0.0" type="line"/>
    </contour>
  </outline>
</glyph>
<glyph name="I" format="1">
  <advance width="383.486236195"/>
  <unicode hex="0049"/>
  <outline>
    <contour>
      <point x="296.479112196" y="0.0" type="line"/>
      <point x="296.479112196" y="709.0" type="line"/>
      <point x="86.9313628835" y="709.0" type="line"/>
      <point x="86.9313628835" y="0.0" type="line"/>
    </contour>
  </outline>
</glyph>
<glyph name="J" format="1">
  <advance width="556.490721984"/>
  <unicode hex="004A"/>
  <outline>
    <contour>
      <point x="22.3473226326" y="27.6239048922" type="line"/>
      <point x="82.2633369871" y="-0.0956189478419"/>
      <point x="139.149291142" y="-14.0"/>
      <point x="216.183540744" y="-14.0" type="curve" smooth="yes"/>
      <point x="386.065262915" y="-14.0"/>
      <point x="479.556608225" y="82.8693991987"/>
      <point x="479.556608225" y="265.41560719" type="curve" smooth="yes"/>
      <point x="479.556608225" y="709.0" type="line"/>
      <point x="269.933097797" y="709.0" type="line"/>
      <point x="269.933097797" y="264.123427556" type="line" smooth="yes"/>
      <point x="269.933097797" y="155.273310403"/>
      <point x="222.38535295" y="119.559042455"/>
      <point x="172.252668011" y="119.559042455" type="curve" smooth="yes"/>
      <point x="128.584136285" y="119.559042455"/>
      <point x="91.2295134057" y="139.932083193"/>
      <point x="59.9797233338" y="168.485342924" type="curve"/>
    </contour>
  </outline>
</glyph>
<glyph name="K" format="1">
  <advance width="818.948713507"/>
  <unicode hex="004B"/>
  <outline>
    <contour>
      <point x="288.632159975" y="395.185773935" type="line"/>
      <point x="289.814279446" y="445.180218264"/>
      <point x="289.890040561" y="492.979704933"/>
      <point x="289.890040561" y="542.80783306" type="curve" smooth="yes"/>
      <point x="289.890040561" y="709.0" type="line"/>
      <point x="80.3422912487" y="709.0" type="line"/>
      <point x="80.3422912487" y="0.0" type="line"/>
      <point x="289.890040561" y="0.0" type="line"/>
      <point x="289.890040561" y="175.945169701" type="line"/>
      <point x="383.775490151" y="275.927407818" type="line"/>
      <point x="551.642286733" y="0.0" type="line"/>
      <point x="803.004507777" y="0.0" type="line"/>
      <point x="514.344185241" y="412.481137463" type="line"/>
      <point x="770.452350223" y="709.0" type="line"/>
      <point x="521.775319226" y="709.0" type="line"/>
      <point x="398.937574277" y="542.323044058" type="line" smooth="yes"/>
      <point x="361.159058482" y="491.797710439"/>
      <point x="326.44089808" y="446.287001818"/>
      <point x="291.436024045" y="395.185773935" type="curve"/>
    </contour>
  </outline>
</glyph>
<glyph name="L" format="1">
  <advance width="735.889297848"/>
  <unicode hex="004C"/>
  <outline>
    <contour>
      <point x="706.760233079" y="133.63480357" type="line"/>
      <point x="289.890040561" y="133.63480357" type="line"/>
      <point x="289.890040561" y="709.0" type="line"/>
      <point x="80.3422912487" y="709.0" type="line"/>
      <point x="80.3422912487" y="0.0" type="line"/>
      <point x="706.760233079" y="0.0" type="line"/>
    </contour>
  </outline>
</glyph>
<glyph name="M" format="1">
  <advance width="1303.84114622"/>
  <unicode hex="004D"/>
  <outline>
    <contour>
      <point x="651.109638324" y="206.468888779" type="line"/>
      <point x="604.411383753" y="324.712928151"/>
      <point x="536.99554705" y="461.376945156"/>
      <point x="416.937521611" y="709.0" type="curve"/>
      <point x="80.3422912487" y="709.0" type="line"/>
      <point x="80.3422912487" y="0.0" type="line"/>
      <point x="276.309431541" y="0.0" type="line"/>
      <point x="276.309431541" y="278.92637918"/>
      <point x="275.793920322" y="466.781902206"/>
      <point x="273.747781074" y="576.794329715" type="curve"/>
      <point x="279.762536087" y="576.794329715" type="line"/>
      <point x="329.037921557" y="466.93329946"/>
      <point x="423.544140372" y="278.305360001"/>
      <point x="559.902799021" y="0.0" type="curve"/>
      <point x="744.680466616" y="0.0" type="line"/>
      <point x="890.568554234" y="290.970718927"/>
      <point x="975.18178029" y="466.418338415"/>
      <point x="1024.63873506" y="576.794329715" type="curve"/>
      <point x="1030.65349007" y="576.794329715" type="line"/>
      <point x="1029.38061765" y="465.645797005"/>
      <point x="1028.60735082" y="278.335957242"/>
      <point x="1028.60735082" y="0.0" type="curve"/>
      <point x="1224.54389387" y="0.0" type="line"/>
      <point x="1224.54389387" y="709.0" type="line"/>
      <point x="887.872902395" y="709.0" type="line"/>
      <point x="767.890212873" y="462.86168389"/>
      <point x="701.096120769" y="325.303775288"/>
      <point x="653.776546797" y="206.468888779" type="curve"/>
    </contour>
  </outline>
</glyph>
<glyph name="N" format="1">
  <advance width="939.995341615"/>
  <unicode hex="004E"/>
  <outline>
    <contour>
      <point x="665.050699192" y="182.001666917" type="line"/>
      <point x="624.519186464" y="272.809976613"/>
      <point x="531.272064523" y="448.946734136"/>
      <point x="385.567113421" y="709.0" type="curve"/>
      <point x="80.3422912487" y="709.0" type="line"/>
      <point x="80.3422912487" y="0.0" type="line"/>
      <point x="276.824517563" y="0.0" type="line"/>
      <point x="276.824517563" y="260.719823848"/>
      <point x="274.247386664" y="435.493067848"/>
      <point x="269.928736794" y="526.998333083" type="curve"/>
      <point x="275.277858927" y="526.998333083" type="line"/>
      <point x="315.915480057" y="436.341670595"/>
      <point x="409.026071599" y="261.099054622"/>
      <point x="554.943439193" y="0.0" type="curve"/>
      <point x="859.395294757" y="0.0" type="line"/>
      <point x="859.395294757" y="709.0" type="line"/>
      <point x="663.019426799" y="709.0" type="line"/>
      <point x="663.019426799" y="449.098556588"/>
      <point x="665.338802088" y="273.991971107"/>
      <point x="670.036132558" y="182.001666917" type="curve"/>
    </contour>
  </outline>
</glyph>
<glyph name="O" format="1">
  <advance width="1005.7784643"/>
  <unicode hex="004F"/>
  <outline>
    <contour>
      <point x="47.8071007142" y="354.772841631" type="line"/>
      <point x="47.8071007142" y="108.378596409"/>
      <point x="238.717692946" y="-14.0"/>
      <point x="502.85141408" y="-14.0" type="curve" smooth="yes"/>
      <point x="767.060771353" y="-14.0"/>
      <point x="957.713607975" y="108.378596409"/>
      <point x="957.713607975" y="354.772841631" type="curve" smooth="yes"/>
      <point x="957.713607975" y="601.136489612"/>
      <point x="767.060771353" y="723.0"/>
      <point x="502.85141408" y="723.0" type="curve" smooth="yes"/>
      <point x="238.717692946" y="723.0"/>
      <point x="47.8071007142" y="601.136489612"/>
      <point x="47.8071007142" y="355.772841631" type="curve"/>
    </contour>
    <contour>
      <point x="502.85141408" y="589.592354799" type="line"/>
      <point x="622.017025471" y="589.592354799"/>
      <point x="742.241306423" y="525.572304207"/>
      <point x="742.241306423" y="354.257330412" type="curve" smooth="yes"/>
      <point x="742.241306423" y="183.942781815"/>
      <point x="622.017025471" y="119.407645201"/>
      <point x="502.85141408" y="119.407645201" type="curve" smooth="yes"/>
      <point x="383.579444334" y="119.407645201"/>
      <point x="263.279402267" y="183.942781815"/>
      <point x="263.279402267" y="354.257330412" type="curve" smooth="yes"/>
      <point x="263.279402267" y="525.572304207"/>
      <point x="383.579444334" y="589.592354799"/>
      <point x="501.85141408" y="589.592354799" type="curve"/>
    </contour>
  </outline>
</glyph>
<glyph name="P" format="1">
  <advance width="860.035539958"/>
  <unicode hex="0050"/>
  <outline>
    <contour>
      <point x="289.890040561" y="0.0" type="line"/>
      <point x="289.890040561" y="230.918524663" type="line"/>
      <point x="442.913939081" y="230.918524663" type="line"/>
      <point x="680.79514538" y="230.918524663"/>
      <point x="818.500973865" y="296.147810406"/>
      <point x="818.500973865" y="476.664027142" type="curve" smooth="yes"/>
      <point x="818.500973865" y="612.305166799"/>
      <point x="724.549172491" y="709.0"/>
      <point x="454.680139652" y="709.0" type="curve" smooth="yes"/>
      <point x="80.3422912487" y="709.0" type="line"/>
      <point x="80.3422912487" y="0.0" type="line"/>
    </contour>
    <contour>
      <point x="289.890040561" y="364.780486601" type="curve"/>
      <point x="289.890040561" y="575.36519643" type="line"/>
      <point x="432.911559041" y="575.36519643" type="line" smooth="yes"/>
      <point x="540.02650975" y="575.36519643"/>
      <point x="603.028672313" y="544.435061523"/>
      <point x="603.028672313" y="474.391091321" type="curve" smooth="yes"/>
      <point x="603.028672313" y="398.286572685"/>
      <point x="544.324797142" y="365.469163515"/>
      <point x="428.313993051" y="364.843399961" type="curve" smooth="yes"/>
      <point x="428.000392967" y="364.800577279"/>
      <point x="290.236732587" y="364.780486601"/>
    </contour>
  </outline>
</glyph>
<glyph name="Q" format="1">
  <advance width="1005.7784643"/>
  <unicode hex="0051"/>
  <outline>
    <contour>
      <point x="802.190188879" y="58.183460294" type="line"/>
      <point x="899.586904191" y="119.638015678"/>
      <point x="957.713607975" y="218.395126924"/>
      <point x="957.713607975" y="354.772841631" type="curve" smooth="yes"/>
      <point x="957.713607975" y="601.136489612"/>
      <point x="767.060771353" y="723.0"/>
      <point x="502.85141408" y="723.0" type="curve" smooth="yes"/>
      <point x="238.717692946" y="723.0"/>
      <point x="47.8071007142" y="601.136489612"/>
      <point x="47.8071007142" y="354.772841631" type="curve" smooth="yes"/>
      <point x="47.8071007142" y="108.378596409"/>
      <point x="238.717692946" y="-14.0"/>
      <point x="502.85141408" y="-14.0" type="curve" smooth="yes"/>
      <point x="551.96332345" y="-14.0"/>
      <point x="598.560271775" y="-8.60799122757"/>
      <point x="639.12858674" y="2.6913622923" type="curve"/>
      <point x="849.632242212" y="-164.576189543" type="line"/>
      <point x="958.767962272" y="-44.4487216649" type="line"/>
    </contour>
    <contour>
      <point x="502.85141408" y="589.592354799" type="line"/>
      <point x="622.017025471" y="589.592354799"/>
      <point x="742.241306423" y="525.572304207"/>
      <point x="742.241306423" y="354.257330412" type="curve" smooth="yes"/>
      <point x="742.241306423" y="183.942781815"/>
      <point x="622.017025471" y="119.407645201"/>
      <point x="502.85141408" y="119.407645201" type="curve" smooth="yes"/>
      <point x="383.579444334" y="119.407645201"/>
      <point x="263.279402267" y="183.942781815"/>
      <point x="263.279402267" y="354.257330412" type="curve" smooth="yes"/>
      <point x="263.279402267" y="525.572304207"/>
      <point x="383.579444334" y="589.592354799"/>
      <point x="501.85141408" y="589.592354799" type="curve"/>
    </contour>
  </outline>
</glyph>
<glyph name="R" format="1">
  <advance width="871.068589679"/>
  <unicode hex="0052"/>
  <outline>
    <contour>
      <point x="854.84929587" y="0.0" type="line"/>
      <point x="572.991791832" y="0.0" type="line"/>
      <point x="374.8977445" y="240.057218185" type="line"/>
      <point x="289.890040561" y="240.057218185" type="line"/>
      <point x="289.890040561" y="0.0" type="line"/>
      <point x="80.3422912487" y="0.0" type="line"/>
      <point x="80.3422912487" y="709.0" type="line"/>
      <point x="428.513746471" y="709.0" type="line" smooth="yes"/>
      <point x="581.329687056" y="709.0"/>
      <point x="804.761467216" y="680.456609377"/>
      <point x="804.761467216" y="480.284233058" type="curve" smooth="yes"/>
      <point x="804.761467216" y="353.48307098"/>
      <point x="716.560267046" y="285.700525062"/>
      <point x="590.992750944" y="263.139210123" type="curve"/>
    </contour>
    <contour>
      <point x="289.32924049" y="372.479004822" type="line" smooth="yes"/>
      <point x="292.662729563" y="372.479004822"/>
      <point x="434.420971627" y="375.282166087"/>
      <point x="434.420971627" y="384.979588844" type="curve" smooth="yes"/>
      <point x="535.092130073" y="394.828533831"/>
      <point x="587.016332205" y="431.986490952"/>
      <point x="583.985887593" y="485.769998666" type="curve" smooth="yes"/>
      <point x="583.985887593" y="541.325635726"/>
      <point x="533.542673064" y="575.36519643"/>
      <point x="418.367813391" y="575.36519643" type="curve"/>
      <point x="289.632284952" y="549.98522281" type="line"/>
    </contour>
  </outline>
</glyph>
<glyph name="S" format="1">
  <advance width="760.605156811"/>
  <unicode hex="0053"/>
  <outline>
    <contour>
      <point x="693.350654814" y="536.609040212" type="line"/>
      <point x="665.054999447" y="647.766823186"/>
      <point x="558.306133078" y="723.0"/>
      <point x="388.734970704" y="723.0" type="curve" smooth="yes"/>
      <point x="276.198222431" y="723.0"/>
      <point x="195.386502017" y="700.469409105"/>
      <point x="142.193551641" y="662.561174559" type="curve" smooth="yes"/>
      <point x="91.1968753063" y="626.652164326"/>
      <point x="68.0614565653" y="575.60682338"/>
      <point x="68.0614565653" y="519.0912972" type="curve" smooth="yes"/>
      <point x="68.0614565653" y="437.276251294"/>
      <point x="113.692669073" y="391.774568155"/>
      <point x="159.157304117" y="362.33357959" type="curve" smooth="yes"/>
      <point x="200.229478921" y="334.55834888"/>
      <point x="257.227257875" y="313.037772417"/>
      <point x="328.330835815" y="291.537381659" type="curve" smooth="yes"/>
      <point x="391.102359176" y="271.385863082"/>
      <point x="427.036751987" y="259.99006466"/>
      <point x="458.153089025" y="247.0507221" type="curve" smooth="yes"/>
      <point x="488.119004182" y="233.322745949"/>
      <point x="501.585335923" y="215.066905779"/>
      <point x="501.585335923" y="189.009566618" type="curve" smooth="yes"/>
      <point x="501.585335923" y="172.014734666"/>
      <point x="493.467988205" y="154.851974947"/>
      <point x="475.747002219" y="142.885638244" type="curve" smooth="yes"/>
      <point x="456.072718789" y="130.26867363"/>
      <point x="424.855691351" y="119.407645201"/>
      <point x="378.430762492" y="119.407645201" type="curve" smooth="yes"/>
      <point x="313.813426219" y="119.407645201"/>
      <point x="274.570290784" y="148.162626802"/>
      <point x="256.304846862" y="192.268147454" type="curve"/>
      <point x="43.4720081734" y="178.559363022" type="line"/>
      <point x="69.7812788" y="68.5055008839"/>
      <point x="170.802778499" y="-14.0"/>
      <point x="374.41813347" y="-14.0" type="curve" smooth="yes"/>
      <point x="496.653187586" y="-14.0"/>
      <point x="580.433810852" y="16.727463552"/>
      <point x="635.216383037" y="57.5297404986" type="curve" smooth="yes"/>
      <point x="692.712316299" y="100.726853628"/>
      <point x="717.057637476" y="159.378221921"/>
      <point x="717.057637476" y="216.648470268" type="curve" smooth="yes"/>
      <point x="717.057637476" y="282.588603475"/>
      <point x="683.846532329" y="330.089061288"/>
      <point x="637.457358179" y="363.408024513" type="curve" smooth="yes"/>
      <point x="599.795412588" y="390.953933287"/>
      <point x="549.831209531" y="409.425630935"/>
      <point x="478.528567273" y="430.244496318" type="curve" smooth="yes"/>
      <point x="404.39594164" y="450.213408651"/>
      <point x="373.993454278" y="458.243953798"/>
      <point x="338.814221966" y="472.51833863" type="curve" smooth="yes"/>
      <point x="300.180359561" y="487.747559588"/>
      <point x="279.229799859" y="507.822930812"/>
      <point x="279.229799859" y="535.122959484" type="curve" smooth="yes"/>
      <point x="279.229799859" y="550.738810615"/>
      <point x="287.468936097" y="564.053956095"/>
      <point x="302.53915606" y="573.187720658" type="curve" smooth="yes"/>
      <point x="321.153658713" y="584.214951621"/>
      <point x="351.324233548" y="589.592354799"/>
      <point x="378.434400896" y="589.592354799" type="curve" smooth="yes"/>
      <point x="436.112618295" y="589.592354799"/>
      <point x="468.192378607" y="562.397973582"/>
      <point x="485.883519041" y="527.70229408" type="curve"/>
    </contour>
  </outline>
</glyph>
<glyph name="T" format="1">
  <advance width="741.327459563"/>
  <unicode hex="0054"/>
  <outline>
    <contour>
      <point x="715.970561274" y="709.0" type="line"/>
      <point x="25.2055010353" y="709.0" type="line"/>
      <point x="25.2055010353" y="575.36519643" type="line"/>
      <point x="266.147398136" y="575.36519643" type="line"/>
      <point x="266.147398136" y="0.0" type="line"/>
      <point x="475.695147449" y="0.0" type="line"/>
      <point x="475.695147449" y="575.36519643" type="line"/>
      <point x="715.970561274" y="575.36519643" type="line"/>
    </contour>
  </outline>
</glyph>
<glyph name="U" format="1">
  <advance width="911.543388572"/>
  <unicode hex="0055"/>
  <outline>
    <contour>
      <point x="836.139527912" y="709.0" type="line"/>
      <point x="631.333485949" y="709.0" type="line"/>
      <point x="631.333485949" y="298.386853391" type="line" smooth="yes"/>
      <point x="631.333485949" y="177.396612222"/>
      <point x="589.464300954" y="119.407645201"/>
      <point x="455.226380301" y="119.407645201" type="curve" smooth="yes"/>
      <point x="316.428008239" y="119.407645201"/>
      <point x="280.05850537" y="180.896105969"/>
      <point x="280.05850537" y="298.386853391" type="curve" smooth="yes"/>
      <point x="280.05850537" y="709.0" type="line"/>
      <point x="75.4038606607" y="709.0" type="line"/>
      <point x="75.4038606607" y="314.411287306" type="line" smooth="yes"/>
      <point x="75.4038606607" y="57.2022770827"/>
      <point x="205.521105992" y="-14.0"/>
      <point x="454.968624691" y="-14.0" type="curve" smooth="yes"/>
      <point x="710.961826653" y="-14.0"/>
      <point x="836.139527912" y="61.8088546049"/>
      <point x="836.139527912" y="313.638020477" type="curve" smooth="yes"/>
    </contour>
  </outline>
</glyph>
<glyph name="V" format="1">
  <advance width="872.627443542"/>
  <unicode hex="0056"/>
  <outline>
    <contour>
      <point x="433.396271949" y="134.90329903" type="line"/>
      <point x="411.373466829" y="208.761071197"/>
      <point x="388.653881414" y="270.630347593"/>
      <point x="367.25252067" y="332.635415835" type="curve" smooth="yes"/>
      <point x="248.52142976" y="709.0" type="line"/>
      <point x="22.46160612" y="709.0" type="line"/>
      <point x="305.884994826" y="0.0" type="line"/>
      <point x="570.665712227" y="0.0" type="line"/>
      <point x="854.271095428" y="709.0" type="line"/>
      <point x="627.877755063" y="709.0" type="line"/>
      <point x="508.268014341" y="333.014221411" type="line" smooth="yes"/>
      <point x="485.760720439" y="269.206139496"/>
      <point x="464.737790342" y="208.366785188"/>
      <point x="442.457779786" y="134.90329903" type="curve"/>
    </contour>
  </outline>
</glyph>
<glyph name="W" format="1">
  <advance width="1413.34949046"/>
  <unicode hex="0057"/>
  <outline>
    <contour>
      <point x="710.462610393" y="543.514001266" type="line"/>
      <point x="735.970105807" y="425.614156894"/>
      <point x="758.721027016" y="339.148902889"/>
      <point x="782.138556478" y="255.501042638" type="curve" smooth="yes"/>
      <point x="855.73971682" y="0.0" type="line"/>
      <point x="1133.4269064" y="0.0" type="line"/>
      <point x="1395.76640917" y="709.0" type="line"/>
      <point x="1173.82982489" y="709.0" type="line"/>
      <point x="1089.59287722" y="433.465894507" type="line" smooth="yes"/>
      <point x="1062.20563165" y="344.788824453"/>
      <point x="1034.74347535" y="253.323982511"/>
      <point x="1005.29601067" y="139.459375426" type="curve"/>
      <point x="1002.26498823" y="139.459375426" type="line"/>
      <point x="975.030115281" y="252.870941367"/>
      <point x="946.795242332" y="343.42568586"/>
      <point x="919.741938679" y="433.102330716" type="curve" smooth="yes"/>
      <point x="837.71813292" y="709.0" type="line"/>
      <point x="579.039535028" y="709.0" type="line"/>
      <point x="497.1672515" y="433.84482506" type="line" smooth="yes"/>
      <point x="470.371278259" y="345.941021835"/>
      <point x="441.878949921" y="255.673529843"/>
      <point x="414.79572418" y="139.459375426" type="curve"/>
      <point x="411.764701741" y="139.459375426" type="line"/>
      <point x="383.271647984" y="252.687671279"/>
      <point x="354.370041806" y="343.652668985"/>
      <point x="326.98279623" y="432.814653017" type="curve" smooth="yes"/>
      <point x="242.927843056" y="709.0" type="line"/>
      <point x="20.6577420501" y="709.0" type="line"/>
      <point x="283.482283779" y="0.0" type="line"/>
      <point x="560.911717749" y="0.0" type="line"/>
      <point x="634.543350355" y="252.029895165" type="line" smooth="yes"/>
      <point x="657.37003268" y="335.420725225"/>
      <point x="680.787562141" y="424.50737334"/>
      <point x="705.885904692" y="543.514001266" type="curve"/>
    </contour>
  </outline>
</glyph>
<glyph name="X" format="1">
  <advance width="817.548257247"/>
  <unicode hex="0058"/>
  <outline>
    <contour>
      <point x="422.408822166" y="469.060553789" type="line"/>
      <point x="419.969072062" y="469.060553789" type="line"/>
      <point x="291.507324896" y="709.0" type="line"/>
      <point x="42.5112188316" y="709.0" type="line"/>
      <point x="304.747024454" y="360.81944321" type="line"/>
      <point x="34.9691631091" y="0.0" type="line"/>
      <point x="295.614961115" y="0.0" type="line"/>
      <point x="419.453986041" y="234.539691933" type="line"/>
      <point x="422.408822166" y="234.539691933" type="line"/>
      <point x="546.869291469" y="0.0" type="line"/>
      <point x="807.257333866" y="0.0" type="line"/>
      <point x="537.661467016" y="360.81944321" type="line"/>
      <point x="799.715278143" y="709.0" type="line"/>
      <point x="550.461841667" y="709.0" type="line"/>
    </contour>
  </outline>
</glyph>
<glyph name="Y" format="1">
  <advance width="812.25703774"/>
  <unicode hex="0059"/>
  <outline>
    <contour>
      <point x="794.932137263" y="709.0" type="line"/>
      <point x="561.795213511" y="709.0" type="line"/>
      <point x="487.105739568" y="547.519328964" type="line" smooth="yes"/>
      <point x="461.567835292" y="491.322355772"/>
      <point x="435.666242248" y="434.170421477"/>
      <point x="409.249813137" y="366.878241844" type="curve"/>
      <point x="404.67438303" y="366.878241844" type="line"/>
      <point x="379.287876008" y="433.064188098"/>
      <point x="352.568402435" y="489.988113627"/>
      <point x="327.439225824" y="546.775933956" type="curve" smooth="yes"/>
      <point x="254.324756789" y="709.0" type="line"/>
      <point x="17.0671448673" y="709.0" type="line"/>
      <point x="302.332337364" y="240.541747752" type="line"/>
      <point x="302.332337364" y="0.0" type="line"/>
      <point x="512.137842286" y="0.0" type="line"/>
      <point x="512.137842286" y="240.541747752" type="line"/>
    </contour>
  </outline>
</glyph>
<glyph name="Z" format="1">
  <advance width="750.167949622"/>
  <unicode hex="005A"/>
  <outline>
    <contour>
      <point x="63.3627386587" y="0.0" type="line"/>
      <point x="693.106229969" y="0.0" type="line"/>
      <point x="693.106229969" y="133.63480357" type="line"/>
      <point x="331.475070361" y="133.63480357" type="line"/>
      <point x="669.185816041" y="609.761537815" type="line"/>
      <point x="669.185816041" y="709.0" type="line"/>
      <point x="85.600787681" y="709.0" type="line"/>
      <point x="85.600787681" y="575.36519643" type="line"/>
      <point x="404.90794565" y="575.36519643" type="line"/>
      <point x="63.3627386587" y="95.964675968" type="line"/>
    </contour>
  </outline>
</glyph>
<glyph name="bracketleft" format="1">
  <advance width="543.199103989"/>
  <unicode hex="005B"/>
  <outline>
    <contour>
      <point x="496.507953694" y="-156.0" type="line"/>
      <point x="496.507953694" y="-32.1969947091" type="line"/>
      <point x="313.412514673" y="-32.1969947091" type="line"/>
      <point x="313.412514673" y="615.196994709" type="line"/>
      <point x="496.507953694" y="615.196994709" type="line"/>
      <point x="496.507953694" y="739.0" type="line"/>
      <point x="114.471531261" y="739.0" type="line"/>
      <point x="114.471531261" y="-156.0" type="line"/>
    </contour>
  </outline>
</glyph>
<glyph name="backslash" format="1">
  <advance width="604.283177702"/>
  <unicode hex="005C"/>
  <outline>
    <contour>
      <point x="1.41198421333" y="739.0" type="line"/>
      <point x="430.330014622" y="-12.0" type="line"/>
      <point x="582.888596572" y="-12.0" type="line"/>
      <point x="153.561413299" y="739.0" type="line"/>
    </contour>
  </outline>
</glyph>
<glyph name="bracketright" format="1">
  <advance width="542.971820643"/>
  <unicode hex="005D"/>
  <outline>
    <contour>
      <point x="29.3300480228" y="-156.0" type="line"/>
      <point x="411.51786771" y="-156.0" type="line"/>
      <point x="411.51786771" y="739.0" type="line"/>
      <point x="29.3300480228" y="739.0" type="line"/>
      <point x="29.3300480228" y="615.196994709" type="line"/>
      <point x="212.319128688" y="615.196994709" type="line"/>
      <point x="212.319128688" y="-32.1969947091" type="line"/>
      <point x="29.3300480228" y="-32.1969947091" type="line"/>
    </contour>
  </outline>
</glyph>
<glyph name="underscore" format="1">
  <advance width="671.307193512"/>
  <unicode hex="005F"/>
  <outline>
    <contour>
      <point x="671.307193512" y="-125.0" type="line"/>
      <point x="671.307193512" y="-75.0" type="line"/>
      <point x="0.0" y="-75.0" type="line"/>
      <point x="0.0" y="-125.0" type="line"/>
    </contour>
  </outline>
</glyph>
<glyph name="a" format="1">
  <advance width="806.529351506"/>
  <unicode hex="0061"/>
  <outline>
    <contour>
      <point x="728.667393054" y="0.0" type="line"/>
      <point x="728.667393054" y="10.0606574406" type="line"/>
      <point x="710.321284883" y="19.1935471654"/>
      <point x="707.245648745" y="37.4697840357"/>
      <point x="707.245648745" y="85.4658825431" type="curve" smooth="yes"/>
      <point x="707.245648745" y="316.365871795" type="line" smooth="yes"/>
      <point x="707.245648745" y="497.97284192"/>
      <point x="591.231020441" y="544.0"/>
      <point x="409.894155135" y="544.0" type="curve" smooth="yes"/>
      <point x="213.912935139" y="544.0"/>
      <point x="130.298900202" y="474.328188835"/>
      <point x="85.0632470279" y="398.887450224" type="curve"/>
      <point x="292.83347753" y="374.118282304" type="line"/>
      <point x="314.451235061" y="408.642591667"/>
      <point x="346.88100548" y="438.775791094"/>
      <point x="404.773041767" y="438.775791094" type="curve" smooth="yes"/>
      <point x="475.313893331" y="438.775791094"/>
      <point x="507.940976565" y="407.035150614"/>
      <point x="507.940976565" y="354.651701994" type="curve" smooth="yes"/>
      <point x="507.940976565" y="339.152059271" type="line"/>
      <point x="149.309285967" y="313.60393849"/>
      <point x="47.7328914153" y="253.781007235"/>
      <point x="47.7328914153" y="144.651318025" type="curve" smooth="yes"/>
      <point x="47.7328914153" y="46.9839707773"/>
      <point x="133.122356748" y="-12.0"/>
      <point x="309.771605352" y="-12.0" type="curve" smooth="yes"/>
      <point x="398.478306849" y="-12.0"/>
      <point x="471.691561424" y="10.7723661653"/>
      <point x="512.138276247" y="34.4765454155" type="curve"/>
      <point x="514.790317865" y="34.4765454155" type="line"/>
      <point x="516.926848264" y="19.5258870046"/>
      <point x="520.669267898" y="7.92201191644"/>
      <point x="527.030729698" y="0.0" type="curve"/>
    </contour>
    <contour>
      <point x="508.456062587" y="133.656250638" type="line"/>
      <point x="452.014373605" y="105.439238161"/>
      <point x="388.577313805" y="96.7583019213"/>
      <point x="342.903815101" y="96.7583019213" type="curve" smooth="yes"/>
      <point x="283.365041529" y="96.7583019213"/>
      <point x="252.007704908" y="119.963923838"/>
      <point x="252.007704908" y="152.791438387" type="curve" smooth="yes"/>
      <point x="252.007704908" y="203.642108104"/>
      <point x="319.291440265" y="232.414431656"/>
      <point x="508.456062587" y="248.532678654" type="curve"/>
    </contour>
  </outline>
</glyph>
<glyph name="b" format="1">
  <advance width="807.836402377"/>
  <unicode hex="0062"/>
  <outline>
    <contour>
      <point x="73.0735462772" y="0.0" type="line"/>
      <point x="272.120763068" y="0.0" type="line"/>
      <point x="271.378518678" y="39.2351319414" type="line"/>
      <point x="274.560087974" y="39.2351319414" type="line"/>
      <point x="325.115852722" y="12.7352877059"/>
      <point x="385.411384938" y="-12.0"/>
      <point x="465.228488334" y="-12.0" type="curve" smooth="yes"/>
      <point x="684.330157293" y="-12.0"/>
      <point x="769.011808909" y="132.218075907"/>
      <point x="769.011808909" y="266.87907501" type="curve" smooth="yes"/>
      <point x="769.011808909" y="452.195435395"/>
      <point x="617.80498569" y="544.0"/>
      <point x="473.333034054" y="544.0" type="curve" smooth="yes"/>
      <point x="387.541484386" y="544.0"/>
      <point x="328.930392798" y="521.759613993"/>
      <point x="275.43898774" y="491.84147957" type="curve"/>
      <point x="272.272285299" y="491.84147957" type="line"/>
      <point x="272.272285299" y="727.0" type="line"/>
      <point x="73.0735462772" y="727.0" type="line"/>
    </contour>
    <contour>
      <point x="272.272285299" y="363.631549768" type="line"/>
      <point x="315.123337695" y="393.803486214"/>
      <point x="371.033471716" y="418.132823841"/>
      <point x="432.260966878" y="418.132823841" type="curve" smooth="yes"/>
      <point x="518.94772708" y="418.132823841"/>
      <point x="564.736995417" y="358.994237337"/>
      <point x="564.812756532" y="265.074785742" type="curve" smooth="yes"/>
      <point x="564.888517648" y="174.506018963"/>
      <point x="514.326694767" y="113.867176159"/>
      <point x="433.806224942" y="113.867176159" type="curve" smooth="yes"/>
      <point x="362.797250732" y="113.867176159"/>
      <point x="308.325753331" y="142.266582503"/>
      <point x="272.272285299" y="167.747142139" type="curve"/>
    </contour>
  </outline>
</glyph>
<glyph name="c" format="1">
  <advance width="809.521171764"/>
  <unicode hex="0063"/>
  <outline>
    <contour>
      <point x="770.046075361" y="361.42007861" type="line"/>
      <point x="731.81350182" y="456.436879638"/>
      <point x="624.588922641" y="544.0"/>
      <point x="417.264491613" y="544.0" type="curve" smooth="yes"/>
      <point x="184.716503488" y="544.0"/>
      <point x="38.7488323522" y="444.633519571"/>
      <point x="38.7488323522" y="266.40927784" type="curve" smooth="yes"/>
      <point x="38.7488323522" y="88.9204195269"/>
      <point x="179.93710864" y="-12.0"/>
      <point x="417.401197256" y="-12.0" type="curve" smooth="yes"/>
      <point x="596.123636002" y="-12.0"/>
      <point x="722.35844426" y="63.46021159"/>
      <point x="772.438684576" y="172.154898203" type="curve"/>
      <point x="562.801994951" y="197.347535666" type="line"/>
      <point x="530.567770886" y="144.467737063"/>
      <point x="487.700788418" y="105.179246544"/>
      <point x="415.31025593" y="105.179246544" type="curve" smooth="yes"/>
      <point x="323.893064828" y="105.179246544"/>
      <point x="243.023645844" y="153.796425364"/>
      <point x="243.023645844" y="265.121350188" type="curve" smooth="yes"/>
      <point x="243.023645844" y="371.75221167"/>
      <point x="310.440484189" y="426.820753456"/>
      <point x="415.976864182" y="426.820753456" type="curve" smooth="yes"/>
      <point x="484.596593629" y="426.820753456"/>
      <point x="529.888097549" y="390.456889444"/>
      <point x="562.07629421" y="341.514831759" type="curve"/>
    </contour>
  </outline>
</glyph>
<glyph name="d" format="1">
  <advance width="807.836402377"/>
  <unicode hex="0064"/>
  <outline>
    <contour>
      <point x="536.382122584" y="39.2351319414" type="line"/>
      <point x="535.564117078" y="0.0" type="line"/>
      <point x="734.7628561" y="0.0" type="line"/>
      <point x="734.7628561" y="727.0" type="line"/>
      <point x="535.564117078" y="727.0" type="line"/>
      <point x="535.564117078" y="492.296046262" type="line"/>
      <point x="532.503772993" y="492.296046262" type="line"/>
      <point x="479.78465939" y="522.50198336"/>
      <point x="414.628971757" y="544.0"/>
      <point x="334.730651668" y="544.0" type="curve" smooth="yes"/>
      <point x="190.031416687" y="544.0"/>
      <point x="38.7488323522" y="452.346957625"/>
      <point x="38.7488323522" y="266.87907501" type="curve" smooth="yes"/>
      <point x="38.7488323522" y="119.997328872"/>
      <point x="128.327840553" y="-12.0"/>
      <point x="342.532152928" y="-12.0" type="curve" smooth="yes"/>
      <point x="423.409162076" y="-12.0"/>
      <point x="484.007363823" y="13.7190574129"/>
      <point x="533.458308897" y="39.2351319414" type="curve"/>
    </contour>
    <contour>
      <point x="373.95441632" y="113.867176159" type="line"/>
      <point x="291.374878004" y="113.867176159"/>
      <point x="242.872123614" y="169.684848692"/>
      <point x="243.023645844" y="265.074785742" type="curve" smooth="yes"/>
      <point x="243.09940696" y="358.479151316"/>
      <point x="288.040497749" y="418.132823841"/>
      <point x="375.499674384" y="418.132823841" type="curve" smooth="yes"/>
      <point x="438.787513631" y="418.132823841"/>
      <point x="494.000992334" y="393.212639078"/>
      <point x="535.564117078" y="363.631549768" type="curve"/>
      <point x="535.564117078" y="167.747142139" type="line"/>
      <point x="498.526629385" y="140.873285002"/>
      <point x="445.933356598" y="113.867176159"/>
      <point x="374.95441632" y="113.867176159" type="curve"/>
    </contour>
  </outline>
</glyph>
<glyph name="e" format="1">
  <advance width="794.571460189"/>
  <unicode hex="0065"/>
  <outline>
    <contour>
      <point x="754.95790664" y="225.404044564" type="line"/>
      <point x="754.95790664" y="319.0465961"/>
      <point x="723.173847867" y="407.592443741"/>
      <point x="647.645314081" y="469.594534425" type="curve" smooth="yes"/>
      <point x="581.771349103" y="522.320000174"/>
      <point x="501.472700562" y="544.0"/>
      <point x="399.874569429" y="544.0" type="curve" smooth="yes"/>
      <point x="282.640975633" y="544.0"/>
      <point x="196.420501285" y="516.410014567"/>
      <point x="137.425249521" y="473.093565397" type="curve" smooth="yes"/>
      <point x="69.9130225644" y="422.653751892"/>
      <point x="38.7488323522" y="348.636921156"/>
      <point x="38.7488323522" y="266.999686645" type="curve" smooth="yes"/>
      <point x="38.7488323522" y="176.131767202"/>
      <point x="69.3243014186" y="104.405540285"/>
      <point x="135.592076939" y="57.0583688972" type="curve" smooth="yes"/>
      <point x="197.770774037" y="10.164076543"/>
      <point x="289.674049353" y="-12.0"/>
      <point x="400.768461027" y="-12.0" type="curve" smooth="yes"/>
      <point x="504.307260581" y="-12.0"/>
      <point x="579.303189324" y="8.98493345872"/>
      <point x="637.178929804" y="39.8347502243" type="curve" smooth="yes"/>
      <point x="692.116101585" y="70.3218535955"/>
      <point x="731.961131155" y="105.18788752"/>
      <point x="754.867528624" y="138.114765437" type="curve"/>
      <point x="539.83751523" y="152.838855056" type="line"/>
      <point x="504.953526782" y="115.450052278"/>
      <point x="460.799693013" y="93.2242089061"/>
      <point x="400.360708735" y="93.2242089061" type="curve" smooth="yes"/>
      <point x="322.832032457" y="93.2242089061"/>
      <point x="262.18776179" y="133.068382158"/>
      <point x="243.538731866" y="225.404044564" type="curve"/>
    </contour>
    <contour>
      <point x="243.023645844" y="317.428326063" type="line"/>
      <point x="263.733019854" y="399.558952477"/>
      <point x="325.230671866" y="438.775791094"/>
      <point x="397.299564521" y="438.775791094" type="curve" smooth="yes"/>
      <point x="466.719004322" y="438.775791094"/>
      <point x="524.76307815" y="397.498587603"/>
      <point x="549.425887713" y="317.428326063" type="curve"/>
    </contour>
  </outline>
</glyph>
<glyph name="g" format="1">
  <advance width="837.060338501"/>
  <unicode hex="0067"/>
  <outline>
    <contour>
      <point x="571.847421914" y="494.475676119" type="line"/>
      <point x="569.180938639" y="494.475676119" type="line"/>
      <point x="525.870616103" y="523.123564022"/>
      <point x="456.894395775" y="544.0"/>
      <point x="385.102234798" y="544.0" type="curve" smooth="yes"/>
      <point x="166.916217575" y="544.0"/>
      <point x="42.3544345012" y="441.852317187"/>
      <point x="42.3544345012" y="271.228385522" type="curve" smooth="yes"/>
      <point x="42.3544345012" y="102.33403342"/>
      <point x="148.548596066" y="-12.0"/>
      <point x="384.026186596" y="-12.0" type="curve" smooth="yes"/>
      <point x="469.770294712" y="-12.0"/>
      <point x="533.322181966" y="16.296841291"/>
      <point x="568.407972031" y="39.6879752255" type="curve"/>
      <point x="570.771660799" y="39.6879752255" type="line"/>
      <point x="570.771660799" y="20.6650845303" type="line" smooth="yes"/>
      <point x="570.771660799" y="-27.7548882784"/>
      <point x="557.623864816" y="-72.6966570499"/>
      <point x="530.282133604" y="-101.268470924" type="curve" smooth="yes"/>
      <point x="503.320196475" y="-127.929062558"/>
      <point x="462.423443163" y="-144.335839477"/>
      <point x="413.843336439" y="-144.335839477" type="curve" smooth="yes"/>
      <point x="366.68737441" y="-144.335839477"/>
      <point x="333.089112914" y="-135.049012175"/>
      <point x="310.216578429" y="-122.611026265" type="curve" smooth="yes"/>
      <point x="283.981843591" y="-107.551370466"/>
      <point x="269.532066364" y="-89.294853317"/>
      <point x="259.580844644" y="-66.7756289836" type="curve"/>
      <point x="47.0207533969" y="-87.9079092273" type="line"/>
      <point x="89.3144974196" y="-152.929208418"/>
      <point x="145.262897651" y="-194.963472158"/>
      <point x="204.108054024" y="-221.148219354" type="curve" smooth="yes"/>
      <point x="275.467384447" y="-252.95428595"/>
      <point x="350.389515955" y="-261.515086021"/>
      <point x="418.736316065" y="-261.515086021" type="curve" smooth="yes"/>
      <point x="540.637931818" y="-261.515086021"/>
      <point x="633.357774936" y="-232.077898414"/>
      <point x="687.869088095" y="-179.852989186" type="curve" smooth="yes"/>
      <point x="742.472429795" y="-126.627468207"/>
      <point x="769.71264421" y="-50.9007508634"/>
      <point x="769.71264421" y="63.8839948122" type="curve" smooth="yes"/>
      <point x="769.71264421" y="532.0" type="line"/>
      <point x="570.771660799" y="532.0" type="line"/>
    </contour>
    <contour>
      <point x="246.629247993" y="266.757174647" type="line"/>
      <point x="246.629247993" y="337.78693359"/>
      <point x="277.879185657" y="416.146540078"/>
      <point x="408.631380453" y="416.146540078" type="curve" smooth="yes"/>
      <point x="482.914993545" y="416.146540078"/>
      <point x="539.931924254" y="387.365472652"/>
      <point x="570.771660799" y="362.448477539" type="curve"/>
      <point x="570.771660799" y="172.232460527" type="line"/>
      <point x="522.994666456" y="139.28555419"/>
      <point x="470.401218425" y="115.853459922"/>
      <point x="406.753594172" y="115.853459922" type="curve" smooth="yes"/>
      <point x="298.778627826" y="115.853459922"/>
      <point x="246.629247993" y="183.022907197"/>
      <point x="246.629247993" y="265.757174647" type="curve"/>
    </contour>
  </outline>
</glyph>
<glyph name="h" format="1">
  <advance width="840.87709468"/>
  <unicode hex="0068"/>
  <outline>
    <contour>
      <point x="774.636183944" y="0.0" type="line"/>
      <point x="774.636183944" y="306.447265465" type="line" smooth="yes"/>
      <point x="774.636183944" y="386.748400409"/>
      <point x="755.652512945" y="445.384077719"/>
      <point x="719.01953807" y="483.957933836" type="curve" smooth="yes"/>
      <point x="681.235591139" y="523.425006399"/>
      <point x="621.468948582" y="544.0"/>
      <point x="540.643310418" y="544.0" type="curve" smooth="yes"/>
      <point x="493.148941664" y="544.0"/>
      <point x="445.730459002" y="534.228308987"/>
      <point x="408.311577411" y="521.790698007" type="curve" smooth="yes"/>
      <point x="363.500647644" y="506.853418037"/>
      <point x="319.841240109" y="485.432624659"/>
      <point x="276.257718665" y="458.285628805" type="curve"/>
      <point x="272.272285299" y="458.285628805" type="line"/>
      <point x="272.272285299" y="727.0" type="line"/>
      <point x="73.0735462772" y="727.0" type="line"/>
      <point x="73.0735462772" y="0.0" type="line"/>
      <point x="272.272285299" y="0.0" type="line"/>
      <point x="272.272285299" y="321.46966983" type="line"/>
      <point x="306.946584131" y="345.358996091"/>
      <point x="345.147245434" y="366.959081529"/>
      <point x="377.699492659" y="380.89563608" type="curve" smooth="yes"/>
      <point x="407.31262101" y="393.362693682"/>
      <point x="442.910345464" y="401.618623523"/>
      <point x="476.614553252" y="401.618623523" type="curve" smooth="yes"/>
      <point x="514.331701147" y="401.618623523"/>
      <point x="538.173813636" y="388.757779819"/>
      <point x="552.563935064" y="368.503625481" type="curve" smooth="yes"/>
      <point x="570.847272938" y="343.461512703"/>
      <point x="575.361683807" y="305.009747153"/>
      <point x="575.361683807" y="262.175160866" type="curve" smooth="yes"/>
      <point x="575.361683807" y="0.0" type="line"/>
    </contour>
  </outline>
</glyph>
<glyph name="i" format="1">
  <advance width="358.341980351"/>
  <unicode hex="0069"/>
  <outline>
    <contour>
      <point x="278.679362439" y="636.407375535" type="line"/>
      <point x="278.679362439" y="736.274099572" type="line"/>
      <point x="79.6626179119" y="736.274099572" type="line"/>
      <point x="79.6626179119" y="636.407375535" type="line"/>
    </contour>
    <contour>
      <point x="278.679362439" y="532.0" type="line"/>
      <point x="79.6626179119" y="532.0" type="line"/>
      <point x="79.6626179119" y="0.0" type="line"/>
      <point x="278.679362439" y="0.0" type="line"/>
    </contour>
  </outline>
</glyph>
<glyph name="j" format="1">
  <advance width="358.341980351"/>
  <unicode hex="006A"/>
  <outline>
    <contour>
      <point x="278.421606829" y="636.407375535" type="line"/>
      <point x="278.421606829" y="736.274099572" type="line"/>
      <point x="79.4048623022" y="736.274099572" type="line"/>
      <point x="79.4048623022" y="636.407375535" type="line"/>
    </contour>
    <contour>
      <point x="-206.856658153" y="-205.835836056" type="line"/>
      <point x="-171.147871894" y="-220.984657679"/>
      <point x="-136.393921761" y="-232.164451474"/>
      <point x="-100.897852215" y="-239.466020654" type="curve" smooth="yes"/>
      <point x="-65.4312292918" y="-246.434498308"/>
      <point x="-29.8442315536" y="-250.660981525"/>
      <point x="6.81753879254" y="-250.660981525" type="curve" smooth="yes"/>
      <point x="98.4158057677" y="-250.660981525"/>
      <point x="167.577560287" y="-228.829271089"/>
      <point x="213.302252175" y="-179.269631117" type="curve" smooth="yes"/>
      <point x="256.755972124" y="-131.541088004"/>
      <point x="278.679362439" y="-60.0081043771"/>
      <point x="278.679362439" y="51.9045873163" type="curve" smooth="yes"/>
      <point x="278.679362439" y="532.0" type="line"/>
      <point x="79.6626179119" y="532.0" type="line"/>
      <point x="79.6626179119" y="32.8320727687" type="line" smooth="yes"/>
      <point x="79.6626179119" y="-27.206325069"/>
      <point x="74.8607177224" y="-70.8231054009"/>
      <point x="56.7427935613" y="-97.8955151986" type="curve" smooth="yes"/>
      <point x="41.1274405114" y="-118.995056808"/>
      <point x="13.726542542" y="-130.20667317"/>
      <point x="-16.6757451336" y="-130.20667317" type="curve" smooth="yes"/>
      <point x="-39.7141927965" y="-130.20667317"/>
      <point x="-59.8311918521" y="-123.67794562"/>
      <point x="-74.4952244734" y="-117.239721064" type="curve" smooth="yes"/>
      <point x="-95.3993818401" y="-107.80217166"/>
      <point x="-117.426441211" y="-94.1983450129"/>
      <point x="-134.725259517" y="-76.2622269676" type="curve"/>
    </contour>
  </outline>
</glyph>
<glyph name="k" format="1">
  <advance width="779.45345228"/>
  <unicode hex="006B"/>
  <outline>
    <contour>
      <point x="487.742874918" y="322.01525492" type="line"/>
      <point x="715.77620389" y="532.0" type="line"/>
      <point x="471.328220434" y="532.0" type="line"/>
      <point x="363.232855717" y="422.572295824" type="line" smooth="yes"/>
      <point x="333.483172968" y="391.227039876"/>
      <point x="304.203412367" y="359.427342213"/>
      <point x="275.333354803" y="328.249264172" type="curve"/>
      <point x="271.529490733" y="328.249264172" type="line"/>
      <point x="272.196524183" y="366.928475177"/>
      <point x="272.272285299" y="395.953930638"/>
      <point x="272.272285299" y="427.874678267" type="curve" smooth="yes"/>
      <point x="272.272285299" y="727.0" type="line"/>
      <point x="73.0735462772" y="727.0" type="line"/>
      <point x="73.0735462772" y="0.0" type="line"/>
      <point x="272.272285299" y="0.0" type="line"/>
      <point x="272.272285299" y="145.160536753" type="line"/>
      <point x="355.176430796" y="208.495376951" type="line"/>
      <point x="506.448629994" y="0.0" type="line"/>
      <point x="769.869695843" y="0.0" type="line"/>
    </contour>
  </outline>
</glyph>
<glyph name="l" format="1">
  <advance width="358.341980351"/>
  <unicode hex="006C"/>
  <outline>
    <contour>
      <point x="278.679362439" y="0.0" type="line"/>
      <point x="278.679362439" y="727.0" type="line"/>
      <point x="79.6626179119" y="727.0" type="line"/>
      <point x="79.6626179119" y="0.0" type="line"/>
    </contour>
  </outline>
</glyph>
<glyph name="m" format="1">
  <advance width="1274.83993563"/>
  <unicode hex="006D"/>
  <outline>
    <contour>
      <point x="1208.52326378" y="0.0" type="line"/>
      <point x="1208.52326378" y="304.126800691" type="line" smooth="yes"/>
      <point x="1208.52326378" y="394.385425754"/>
      <point x="1187.79660984" y="452.80736071"/>
      <point x="1150.1473544" y="490.487825137" type="curve" smooth="yes"/>
      <point x="1113.52924638" y="527.243375528"/>
      <point x="1059.74474745" y="544.0"/>
      <point x="992.477535239" y="544.0" type="curve" smooth="yes"/>
      <point x="936.831129387" y="544.0"/>
      <point x="891.593227514" y="534.243000597"/>
      <point x="847.038214454" y="517.593334924" type="curve" smooth="yes"/>
      <point x="805.905958652" y="502.124813348"/>
      <point x="768.214866659" y="479.551472099"/>
      <point x="725.10241798" y="451.965815184" type="curve"/>
      <point x="719.754146242" y="451.965815184" type="line"/>
      <point x="702.754606747" y="478.569604697"/>
      <point x="681.862539093" y="500.247465399"/>
      <point x="657.71425451" y="515.003051096" type="curve" smooth="yes"/>
      <point x="626.429126174" y="533.183094844"/>
      <point x="583.873137741" y="544.0"/>
      <point x="524.455729161" y="544.0" type="curve" smooth="yes"/>
      <point x="477.247260777" y="544.0"/>
      <point x="427.964006651" y="533.621981418"/>
      <point x="390.074089429" y="519.805501461" type="curve" smooth="yes"/>
      <point x="351.184597404" y="505.216179872"/>
      <point x="313.674774487" y="485.08246375"/>
      <point x="275.515049076" y="459.359864372" type="curve"/>
      <point x="270.681438162" y="459.359864372" type="line"/>
      <point x="272.272285299" y="532.0" type="line"/>
      <point x="73.0735462772" y="532.0" type="line"/>
      <point x="73.0735462772" y="0.0" type="line"/>
      <point x="272.272285299" y="0.0" type="line"/>
      <point x="272.272285299" y="319.195633659" type="line"/>
      <point x="300.991471784" y="343.448135646"/>
      <point x="331.771302576" y="362.898062292"/>
      <point x="360.991008448" y="377.577286431" type="curve" smooth="yes"/>
      <point x="395.725263302" y="394.831940677"/>
      <point x="426.142393833" y="400.84620709"/>
      <point x="453.000499795" y="400.84620709" type="curve" smooth="yes"/>
      <point x="479.463631464" y="400.84620709"/>
      <point x="500.730877155" y="392.392865725"/>
      <point x="515.848376118" y="375.395366646" type="curve" smooth="yes"/>
      <point x="534.147444378" y="354.170334268"/>
      <point x="541.327913324" y="319.716304617"/>
      <point x="541.327913324" y="269.42932607" type="curve" smooth="yes"/>
      <point x="541.327913324" y="0.0" type="line"/>
      <point x="740.268896736" y="0.0" type="line"/>
      <point x="740.268896736" y="318.438334035" type="line"/>
      <point x="770.36638889" y="343.765921986"/>
      <point x="800.812702957" y="363.35237903"/>
      <point x="829.987369932" y="377.289358779" type="curve" smooth="yes"/>
      <point x="862.873572213" y="392.771596592"/>
      <point x="894.199774553" y="400.84620709"/>
      <point x="919.512622452" y="400.84620709" type="curve" smooth="yes"/>
      <point x="948.307732163" y="400.84620709"/>
      <point x="970.090063876" y="392.817448753"/>
      <point x="985.192695983" y="374.411346985" type="curve" smooth="yes"/>
      <point x="1002.28014788" y="353.308103127"/>
      <point x="1009.32452476" y="316.88503434"/>
      <point x="1009.32452476" y="267.309764518" type="curve" smooth="yes"/>
      <point x="1009.32452476" y="0.0" type="line"/>
    </contour>
  </outline>
</glyph>
<glyph name="n" format="1">
  <advance width="840.87709468"/>
  <unicode hex="006E"/>
  <outline>
    <contour>
      <point x="774.636183944" y="0.0" type="line"/>
      <point x="774.636183944" y="306.447265465" type="line" smooth="yes"/>
      <point x="774.636183944" y="386.748400409"/>
      <point x="755.652512945" y="445.384077719"/>
      <point x="719.01953807" y="483.957933836" type="curve" smooth="yes"/>
      <point x="681.235591139" y="523.425006399"/>
      <point x="621.468948582" y="544.0"/>
      <point x="540.643310418" y="544.0" type="curve" smooth="yes"/>
      <point x="493.148941664" y="544.0"/>
      <point x="445.730459002" y="535.77356705"/>
      <point x="408.311577411" y="521.790698007" type="curve" smooth="yes"/>
      <point x="363.500647644" y="504.717312836"/>
      <point x="314.690379896" y="471.888865875"/>
      <point x="275.742632644" y="427.304706413" type="curve"/>
      <point x="270.681438162" y="427.304706413" type="line"/>
      <point x="272.272285299" y="532.0" type="line"/>
      <point x="73.0735462772" y="532.0" type="line"/>
      <point x="73.0735462772" y="0.0" type="line"/>
      <point x="272.272285299" y="0.0" type="line"/>
      <point x="272.272285299" y="321.46966983" type="line"/>
      <point x="306.946584131" y="345.358996091"/>
      <point x="345.147245434" y="366.959081529"/>
      <point x="377.699492659" y="380.89563608" type="curve" smooth="yes"/>
      <point x="407.31262101" y="393.211171452"/>
      <point x="442.683062118" y="401.618623523"/>
      <point x="476.463031021" y="401.618623523" type="curve" smooth="yes"/>
      <point x="514.407462262" y="401.618623523"/>
      <point x="538.173813636" y="388.606257589"/>
      <point x="552.563935064" y="368.35210325" type="curve" smooth="yes"/>
      <point x="570.847272938" y="343.234229357"/>
      <point x="575.361683807" y="305.085508269"/>
      <point x="575.361683807" y="262.250921981" type="curve" smooth="yes"/>
      <point x="575.361683807" y="0.0" type="line"/>
    </contour>
  </outline>
</glyph>
<glyph name="o" format="1">
  <advance width="835.998155512"/>
  <unicode hex="006F"/>
  <outline>
    <contour>
      <point x="797.24932316" y="265.484913979" type="line"/>
      <point x="797.24932316" y="440.024691643"/>
      <point x="661.799438091" y="544.0"/>
      <point x="418.112594452" y="544.0" type="curve" smooth="yes"/>
      <point x="174.198717421" y="544.0"/>
      <point x="38.7488323522" y="440.024691643"/>
      <point x="38.7488323522" y="265.484913979" type="curve" smooth="yes"/>
      <point x="38.7488323522" y="107.470939691"/>
      <point x="157.130045059" y="-12.0"/>
      <point x="418.112594452" y="-12.0" type="curve" smooth="yes"/>
      <point x="662.640974256" y="-12.0"/>
      <point x="797.24932316" y="97.4543439481"/>
      <point x="797.24932316" y="264.484913979" type="curve"/>
    </contour>
    <contour>
      <point x="418.112594452" y="105.179246544" type="line"/>
      <point x="329.473049848" y="105.179246544"/>
      <point x="243.023645844" y="155.807000392"/>
      <point x="243.023645844" y="265.74224439" type="curve" smooth="yes"/>
      <point x="243.023645844" y="377.930202753"/>
      <point x="334.135642496" y="426.820753456"/>
      <point x="418.112594452" y="426.820753456" type="curve" smooth="yes"/>
      <point x="501.862513016" y="426.820753456"/>
      <point x="592.974509667" y="378.961225192"/>
      <point x="592.974509667" y="265.74224439" type="curve" smooth="yes"/>
      <point x="592.974509667" y="159.596734334"/>
      <point x="507.19226409" y="105.179246544"/>
      <point x="419.112594452" y="105.179246544" type="curve"/>
    </contour>
  </outline>
</glyph>
<glyph name="p" format="1">
  <advance width="807.321316355"/>
  <unicode hex="0070"/>
  <outline>
    <contour>
      <point x="72.5584602559" y="-248.0" type="line"/>
      <point x="271.757199277" y="-248.0" type="line"/>
      <point x="271.757199277" y="38.0229540969" type="line"/>
      <point x="274.196524183" y="38.0229540969" type="line"/>
      <point x="305.162027277" y="20.8733454792"/>
      <point x="333.899245383" y="8.55747275258"/>
      <point x="362.092443886" y="1.11913635386" type="curve" smooth="yes"/>
      <point x="400.010130938" y="-8.96982795743"/>
      <point x="432.232388" y="-12.0"/>
      <point x="465.01619682" y="-12.0" type="curve" smooth="yes"/>
      <point x="564.457839187" y="-12.0"/>
      <point x="637.903431487" y="15.300644075"/>
      <point x="689.912949664" y="62.7076596402" type="curve" smooth="yes"/>
      <point x="739.316177406" y="108.720676284"/>
      <point x="768.496722888" y="180.374468962"/>
      <point x="768.496722888" y="267.181869518" type="curve" smooth="yes"/>
      <point x="768.496722888" y="362.976193238"/>
      <point x="733.817008322" y="429.417043692"/>
      <point x="683.89630548" y="473.461532415" type="curve" smooth="yes"/>
      <point x="626.433695892" y="522.290378306"/>
      <point x="554.836756606" y="544.0"/>
      <point x="472.514903572" y="544.0" type="curve" smooth="yes"/>
      <point x="427.233639595" y="544.0"/>
      <point x="390.572294447" y="537.137080574"/>
      <point x="357.834513032" y="528.0322609" type="curve" smooth="yes"/>
      <point x="324.658270241" y="517.912574371"/>
      <point x="299.344271725" y="504.11158798"/>
      <point x="274.741782247" y="491.250207235" type="curve"/>
      <point x="270.681438162" y="491.250207235" type="line"/>
      <point x="271.757199277" y="532.0" type="line"/>
      <point x="72.5584602559" y="532.0" type="line"/>
    </contour>
    <contour>
      <point x="271.757199277" y="363.631549768" type="line"/>
      <point x="296.660043916" y="381.778555103"/>
      <point x="323.001650152" y="395.335502122"/>
      <point x="348.858767607" y="404.121071484" type="curve" smooth="yes"/>
      <point x="379.744531557" y="414.239607395"/>
      <point x="408.888776535" y="418.132823841"/>
      <point x="431.821516995" y="418.132823841" type="curve" smooth="yes"/>
      <point x="472.323846187" y="418.132823841"/>
      <point x="508.358655445" y="404.788118068"/>
      <point x="530.276515915" y="379.414528981" type="curve" smooth="yes"/>
      <point x="551.422510128" y="353.069886609"/>
      <point x="564.297670511" y="316.938138021"/>
      <point x="564.297670511" y="265.37758025" type="curve" smooth="yes"/>
      <point x="564.297670511" y="211.151454828"/>
      <point x="552.452570327" y="177.519737027"/>
      <point x="534.230690023" y="155.493681124" type="curve" smooth="yes"/>
      <point x="509.889910184" y="127.121992515"/>
      <point x="472.961159061" y="113.867176159"/>
      <point x="433.366775059" y="113.867176159" type="curve" smooth="yes"/>
      <point x="404.132640663" y="113.867176159"/>
      <point x="373.988996127" y="118.63842884"/>
      <point x="347.131315363" y="127.121453648" type="curve" smooth="yes"/>
      <point x="317.183118471" y="136.346722846"/>
      <point x="290.159848749" y="150.873510957"/>
      <point x="271.757199277" y="166.459203179" type="curve"/>
    </contour>
  </outline>
</glyph>
<glyph name="q" format="1">
  <advance width="807.836402377"/>
  <unicode hex="0071"/>
  <outline>
    <contour>
      <point x="734.7628561" y="-248.0" type="line"/>
      <point x="734.7628561" y="531.484913979" type="line"/>
      <point x="535.564117078" y="531.484913979" type="line"/>
      <point x="535.867036562" y="491.765718455" type="line"/>
      <point x="532.579534108" y="491.765718455" type="line"/>
      <point x="510.552474737" y="504.369343589"/>
      <point x="481.814443368" y="518.094568865"/>
      <point x="447.350698123" y="528.547346921" type="curve" smooth="yes"/>
      <point x="413.992022506" y="538.243013731"/>
      <point x="375.785294317" y="544.0"/>
      <point x="334.730651668" y="544.0" type="curve" smooth="yes"/>
      <point x="258.074744868" y="544.0"/>
      <point x="176.327607387" y="521.775292285"/>
      <point x="118.274150662" y="470.371016287" type="curve" smooth="yes"/>
      <point x="66.1114094622" y="424.008853068"/>
      <point x="38.7488323522" y="354.992572507"/>
      <point x="38.7488323522" y="267.181869518" type="curve" smooth="yes"/>
      <point x="38.7488323522" y="192.677851221"/>
      <point x="61.081187152" y="120.916838483"/>
      <point x="107.106946487" y="71.4638217807" type="curve" smooth="yes"/>
      <point x="155.662809944" y="20.7084095013"/>
      <point x="231.78934031" y="-12.0"/>
      <point x="342.22935842" y="-12.0" type="curve" smooth="yes"/>
      <point x="372.589259365" y="-12.0"/>
      <point x="408.49287969" y="-8.89406684214"/>
      <point x="445.971241837" y="1.422180815" type="curve" smooth="yes"/>
      <point x="475.482415058" y="9.29984211972"/>
      <point x="506.279977249" y="22.5701257736"/>
      <point x="533.382547782" y="38.2502374427" type="curve"/>
      <point x="535.564117078" y="38.2502374427" type="line"/>
      <point x="535.564117078" y="-248.0" type="line"/>
    </contour>
    <contour>
      <point x="535.564117078" y="166.459203179" type="line"/>
      <point x="517.010070352" y="150.873510957"/>
      <point x="490.320192379" y="136.861808867"/>
      <point x="460.265762108" y="127.348736994" type="curve" smooth="yes"/>
      <point x="433.590075838" y="118.63842884"/>
      <point x="403.112914577" y="113.867176159"/>
      <point x="373.878780181" y="113.867176159" type="curve" smooth="yes"/>
      <point x="328.330522293" y="113.867176159"/>
      <point x="295.962209444" y="128.636653339"/>
      <point x="272.939104102" y="155.463634058" type="curve" smooth="yes"/>
      <point x="252.581243574" y="179.216642298"/>
      <point x="243.023645844" y="214.513692756"/>
      <point x="243.023645844" y="265.635335859" type="curve" smooth="yes"/>
      <point x="243.023645844" y="314.254751128"/>
      <point x="254.974867564" y="352.720702901"/>
      <point x="275.423356063" y="377.822706471" type="curve" smooth="yes"/>
      <point x="301.689063072" y="407.257314795"/>
      <point x="340.254263539" y="418.132823841"/>
      <point x="375.424038245" y="418.132823841" type="curve" smooth="yes"/>
      <point x="398.356778705" y="418.132823841"/>
      <point x="427.652545914" y="414.754693416"/>
      <point x="458.311151495" y="404.121071484" type="curve" smooth="yes"/>
      <point x="484.243905088" y="395.335502122"/>
      <point x="510.585511324" y="381.778555103"/>
      <point x="535.564117078" y="363.631549768" type="curve"/>
    </contour>
  </outline>
</glyph>
<glyph name="r" format="1">
  <advance width="572.667798098"/>
  <unicode hex="0072"/>
  <outline>
    <contour>
      <point x="271.196524183" y="470.235312285" type="line"/>
      <point x="272.272285299" y="532.0" type="line"/>
      <point x="73.0735462772" y="532.0" type="line"/>
      <point x="73.0735462772" y="0.0" type="line"/>
      <point x="272.272285299" y="0.0" type="line"/>
      <point x="272.272285299" y="326.881908977" type="line"/>
      <point x="298.267633945" y="350.653336903"/>
      <point x="324.216529988" y="369.620900758"/>
      <point x="349.862931745" y="382.725845409" type="curve" smooth="yes"/>
      <point x="381.236461084" y="398.74046231"/>
      <point x="408.715623359" y="405.22465087"/>
      <point x="430.439436756" y="405.22465087" type="curve" smooth="yes"/>
      <point x="450.889527338" y="405.22465087"/>
      <point x="471.415817368" y="400.861637254"/>
      <point x="488.988796821" y="393.34777656" type="curve" smooth="yes"/>
      <point x="502.789484818" y="386.984887921"/>
      <point x="515.181445149" y="379.061874363"/>
      <point x="524.588822511" y="370.27551618" type="curve"/>
      <point x="547.677764649" y="521.399338561" type="line"/>
      <point x="533.104235022" y="528.38268307"/>
      <point x="519.575744292" y="533.472510911"/>
      <point x="504.290267293" y="537.638099868" type="curve" smooth="yes"/>
      <point x="487.172593086" y="542.030722218"/>
      <point x="468.645766015" y="544.0"/>
      <point x="448.937369648" y="544.0" type="curve" smooth="yes"/>
      <point x="414.169979499" y="544.0"/>
      <point x="383.038775606" y="535.803688825"/>
      <point x="354.604652229" y="522.32012515" type="curve" smooth="yes"/>
      <point x="325.064595694" y="508.018430993"/>
      <point x="299.857380732" y="489.747759274"/>
      <point x="275.878312646" y="470.235312285" type="curve"/>
    </contour>
  </outline>
</glyph>
<glyph name="s" format="1">
  <advance width="638.601554836"/>
  <unicode hex="0073"/>
  <outline>
    <contour>
      <point x="575.355727832" y="414.002116296" type="line"/>
      <point x="561.693095782" y="450.186738515"/>
      <point x="533.832425496" y="481.098613293"/>
      <point x="494.713085803" y="503.222041031" type="curve" smooth="yes"/>
      <point x="451.442861898" y="528.436697181"/>
      <point x="396.109979538" y="544.0"/>
      <point x="324.38145904" y="544.0" type="curve" smooth="yes"/>
      <point x="231.858565115" y="544.0"/>
      <point x="175.982388572" y="528.923625308"/>
      <point x="128.606218375" y="502.346731229" type="curve" smooth="yes"/>
      <point x="78.5179626957" y="474.14881797"/>
      <point x="46.8376979549" y="429.647796849"/>
      <point x="46.8376979549" y="374.450795561" type="curve" smooth="yes"/>
      <point x="46.8376979549" y="337.935345917"/>
      <point x="59.6410621173" y="304.206079211"/>
      <point x="91.6388632439" y="274.114949506" type="curve" smooth="yes"/>
      <point x="122.348173409" y="245.13024156"/>
      <point x="173.117917329" y="226.688827796"/>
      <point x="235.164828991" y="214.643790725" type="curve" smooth="yes"/>
      <point x="298.453103859" y="203.022723105"/>
      <point x="341.994212303" y="194.249394701"/>
      <point x="363.535481031" y="183.827340689" type="curve" smooth="yes"/>
      <point x="385.729779884" y="174.297889547"/>
      <point x="397.471537501" y="158.723949682"/>
      <point x="397.471537501" y="143.029071693" type="curve" smooth="yes"/>
      <point x="397.471537501" y="127.623587155"/>
      <point x="391.30736225" y="112.990217003"/>
      <point x="379.993878602" y="104.492763673" type="curve" smooth="yes"/>
      <point x="365.454475046" y="93.5263767027"/>
      <point x="344.084662917" y="87.7096599257"/>
      <point x="319.381195952" y="87.7096599257" type="curve" smooth="yes"/>
      <point x="275.396280727" y="87.7096599257"/>
      <point x="245.240848969" y="109.252566044"/>
      <point x="231.201463067" y="135.16008421" type="curve"/>
      <point x="38.4310591469" y="119.466716808" type="line"/>
      <point x="66.8030389379" y="73.6616627182"/>
      <point x="99.2243843173" y="39.1877122755"/>
      <point x="146.632602594" y="17.8059284854" type="curve" smooth="yes"/>
      <point x="191.492948217" y="-2.75633555842"/>
      <point x="248.536202131" y="-12.0"/>
      <point x="318.413480851" y="-12.0" type="curve" smooth="yes"/>
      <point x="404.545163863" y="-12.0"/>
      <point x="474.905605501" y="6.69708051571"/>
      <point x="523.494067213" y="38.3793444439" type="curve" smooth="yes"/>
      <point x="574.035789233" y="70.9546495734"/>
      <point x="600.610245793" y="115.167392554"/>
      <point x="600.610245793" y="167.877827511" type="curve" smooth="yes"/>
      <point x="600.610245793" y="212.743749592"/>
      <point x="582.428863049" y="247.09194662"/>
      <point x="552.687416961" y="272.683282357" type="curve" smooth="yes"/>
      <point x="519.811404354" y="301.894773742"/>
      <point x="467.086237" y="319.624102023"/>
      <point x="394.420530859" y="333.366044366" type="curve" smooth="yes"/>
      <point x="325.421459237" y="347.411081437"/>
      <point x="302.528216966" y="352.987723736"/>
      <point x="278.971768027" y="362.3190248" type="curve" smooth="yes"/>
      <point x="256.670810597" y="370.424331247"/>
      <point x="240.444976263" y="383.059540303"/>
      <point x="240.444976263" y="400.057951353" type="curve" smooth="yes"/>
      <point x="240.444976263" y="415.993991036"/>
      <point x="249.002887348" y="426.461522278"/>
      <point x="259.316921171" y="433.156825465" type="curve" smooth="yes"/>
      <point x="273.023452366" y="440.972428758"/>
      <point x="294.666325292" y="444.290340074"/>
      <point x="318.021833875" y="444.290340074" type="curve" smooth="yes"/>
      <point x="360.962510331" y="444.290340074"/>
      <point x="388.452460455" y="421.0794754"/>
      <point x="399.251046461" y="398.71747656" type="curve"/>
    </contour>
  </outline>
</glyph>
<glyph name="t" format="1">
  <advance width="587.185301017"/>
  <unicode hex="0074"/>
  <outline>
    <contour>
      <point x="130.332390368" y="532.0" type="line"/>
      <point x="38.734243988" y="532.0" type="line"/>
      <point x="38.734243988" y="414.593595087" type="line"/>
      <point x="130.332390368" y="414.593595087" type="line"/>
      <point x="130.332390368" y="195.617423388" type="line" smooth="yes"/>
      <point x="130.332390368" y="39.8678990963"/>
      <point x="221.014654676" y="-12.0"/>
      <point x="376.674196764" y="-12.0" type="curve" smooth="yes"/>
      <point x="445.923113824" y="-12.0"/>
      <point x="514.470549412" y="10.2676708899"/>
      <point x="573.206971484" y="37.8092792414" type="curve"/>
      <point x="519.303971505" y="152.383649056" type="line"/>
      <point x="496.400664534" y="133.856558897"/>
      <point x="455.094694958" y="108.196552746"/>
      <point x="411.198441554" y="108.196552746" type="curve" smooth="yes"/>
      <point x="354.273179859" y="108.196552746"/>
      <point x="329.531129389" y="151.664211233"/>
      <point x="329.531129389" y="226.440658517" type="curve" smooth="yes"/>
      <point x="329.531129389" y="414.593595087" type="line"/>
      <point x="487.176132064" y="414.593595087" type="line"/>
      <point x="487.176132064" y="532.0" type="line"/>
      <point x="329.531129389" y="532.0" type="line"/>
      <point x="329.531129389" y="662.649455122" type="line"/>
      <point x="130.332390368" y="662.649455122" type="line"/>
    </contour>
  </outline>
</glyph>
<glyph name="u" format="1">
  <advance width="854.633020001"/>
  <unicode hex="0075"/>
  <outline>
    <contour>
      <point x="66.8321830707" y="532.0" type="line"/>
      <point x="66.8321830707" y="225.552734535" type="line" smooth="yes"/>
      <point x="66.8321830707" y="145.251599591"/>
      <point x="85.4823373442" y="86.6159222811"/>
      <point x="122.11531222" y="48.0420661639" type="curve" smooth="yes"/>
      <point x="160.157014761" y="8.57499360072"/>
      <point x="227.316555888" y="-12.0"/>
      <point x="307.808677328" y="-12.0" type="curve" smooth="yes"/>
      <point x="371.636102301" y="-12.0"/>
      <point x="433.219663147" y="1.52869041613"/>
      <point x="485.090825156" y="22.3148864883" type="curve" smooth="yes"/>
      <point x="520.66080378" y="37.1773807166"/>
      <point x="551.792007673" y="56.0244447806"/>
      <point x="579.223904082" y="75.26388124" type="curve"/>
      <point x="584.209337449" y="75.26388124" type="line"/>
      <point x="582.618490312" y="0.0" type="line"/>
      <point x="781.635234839" y="0.0" type="line"/>
      <point x="781.635234839" y="532.0" type="line"/>
      <point x="582.618490312" y="532.0" type="line"/>
      <point x="582.618490312" y="205.788622821" type="line"/>
      <point x="559.747507643" y="186.005806161"/>
      <point x="525.75692402" y="167.691984716"/>
      <point x="490.143769401" y="153.906827419" type="curve" smooth="yes"/>
      <point x="452.698417573" y="139.303789593"/>
      <point x="410.253177588" y="130.381376477"/>
      <point x="372.140353978" y="130.381376477" type="curve" smooth="yes"/>
      <point x="333.923850447" y="130.381376477"/>
      <point x="302.991758871" y="143.772173057"/>
      <point x="288.722312479" y="163.420738381" type="curve" smooth="yes"/>
      <point x="270.136180098" y="188.538612274"/>
      <point x="265.773166483" y="226.763219454"/>
      <point x="265.773166483" y="269.900600249" type="curve" smooth="yes"/>
      <point x="265.773166483" y="532.0" type="line"/>
    </contour>
  </outline>
</glyph>
<glyph name="v" format="1">
  <advance width="758.227012847"/>
  <unicode hex="0076"/>
  <outline>
    <contour>
      <point x="373.992393055" y="117.167231099" type="line"/>
      <point x="349.621303063" y="198.892005351"/>
      <point x="328.507431639" y="267.133340463"/>
      <point x="305.120624396" y="336.494563616" type="curve" smooth="yes"/>
      <point x="238.747674331" y="532.0" type="line"/>
      <point x="14.0519646567" y="532.0" type="line"/>
      <point x="254.773308699" y="0.0" type="line"/>
      <point x="502.120612621" y="0.0" type="line"/>
      <point x="742.917717779" y="532.0" type="line"/>
      <point x="518.191410864" y="532.0" type="line"/>
      <point x="452.59130243" y="336.873119239" type="line" smooth="yes"/>
      <point x="429.492172885" y="260.63022283"/>
      <point x="409.014737671" y="199.497594366"/>
      <point x="383.204447749" y="117.167231099" type="curve"/>
    </contour>
  </outline>
</glyph>
<glyph name="w" format="1">
  <advance width="1193.6658343"/>
  <unicode hex="0077"/>
  <outline>
    <contour>
      <point x="599.500382367" y="393.05698619" type="line"/>
      <point x="615.963787988" y="321.721007946"/>
      <point x="631.881085149" y="265.453301749"/>
      <point x="648.389654645" y="206.397478213" type="curve" smooth="yes"/>
      <point x="707.945311489" y="0.0" type="line"/>
      <point x="958.62740773" y="0.0" type="line"/>
      <point x="1177.21915844" y="532.0" type="line"/>
      <point x="969.893780421" y="532.0" type="line"/>
      <point x="902.627250287" y="322.968398121" type="line" smooth="yes"/>
      <point x="882.558242517" y="259.532752848"/>
      <point x="863.883395778" y="196.975882365"/>
      <point x="843.042096552" y="122.414672057" type="curve"/>
      <point x="836.178313595" y="122.414672057" type="line"/>
      <point x="818.942491541" y="194.520765498"/>
      <point x="801.479386141" y="258.531602231"/>
      <point x="783.940644603" y="321.345377928" type="curve" smooth="yes"/>
      <point x="724.748676526" y="532.0" type="line"/>
      <point x="467.842071814" y="532.0" type="line"/>
      <point x="408.907434149" y="322.330511072" type="line" smooth="yes"/>
      <point x="391.110937001" y="260.031821397"/>
      <point x="374.359778972" y="196.202490559"/>
      <point x="356.199718033" y="122.414672057" type="curve"/>
      <point x="349.335935076" y="122.414672057" type="line"/>
      <point x="329.23688024" y="196.051518503"/>
      <point x="310.001783606" y="260.593408462"/>
      <point x="290.417689814" y="322.210661991" type="curve" smooth="yes"/>
      <point x="223.25739306" y="532.0" type="line"/>
      <point x="15.4922649359" y="532.0" type="line"/>
      <point x="234.49316851" y="0.0" type="line"/>
      <point x="484.872470243" y="0.0" type="line"/>
      <point x="545.276604857" y="206.821311379" type="line" smooth="yes"/>
      <point x="561.709538214" y="265.346932085"/>
      <point x="576.809380045" y="320.266316277"/>
      <point x="593.378718824" y="393.05698619" type="curve"/>
    </contour>
  </outline>
</glyph>
<glyph name="y" format="1">
  <advance width="771.442506702"/>
  <unicode hex="0079"/>
  <outline>
    <contour>
      <point x="749.889409081" y="532.0" type="line"/>
      <point x="531.710674599" y="532.0" type="line"/>
      <point x="480.225426097" y="370.046289322" type="line" smooth="yes"/>
      <point x="462.184801733" y="314.779422214"/>
      <point x="442.433080395" y="257.543402301"/>
      <point x="424.347842332" y="187.149330939" type="curve"/>
      <point x="418.483634177" y="187.149330939" type="line"/>
      <point x="394.885523926" y="251.043608333"/>
      <point x="363.469945211" y="312.703911053"/>
      <point x="336.402213036" y="368.455141964" type="curve" smooth="yes"/>
      <point x="259.485418613" y="532.0" type="line"/>
      <point x="20.1099699309" y="532.0" type="line"/>
      <point x="330.69087487" y="15.1232003991" type="line"/>
      <point x="313.07315901" y="-41.2250988965" type="line" smooth="yes"/>
      <point x="298.136240836" y="-74.4804898693"/>
      <point x="281.669369786" y="-98.9327421917"/>
      <point x="262.566737678" y="-115.900680978" type="curve" smooth="yes"/>
      <point x="242.798735779" y="-134.382042126"/>
      <point x="219.410828185" y="-143.047486627"/>
      <point x="191.463045626" y="-143.047486627" type="curve" smooth="yes"/>
      <point x="164.452803857" y="-143.047486627"/>
      <point x="137.895903452" y="-136.51777057"/>
      <point x="115.656977765" y="-127.21563808" type="curve" smooth="yes"/>
      <point x="93.5545824767" y="-118.428591612"/>
      <point x="74.6783701843" y="-106.384339708"/>
      <point x="62.998657445" y="-96.930809965" type="curve"/>
      <point x="12.4669978539" y="-218.078797251" type="line"/>
      <point x="39.1011980563" y="-230.305168625"/>
      <point x="65.4481960258" y="-239.577554271"/>
      <point x="94.6584136431" y="-246.894978814" type="curve" smooth="yes"/>
      <point x="131.942893096" y="-256.454866913"/>
      <point x="168.621645423" y="-261.0"/>
      <point x="208.723742316" y="-261.0" type="curve" smooth="yes"/>
      <point x="294.249387116" y="-261.0"/>
      <point x="353.700369324" y="-237.167789657"/>
      <point x="397.046330345" y="-205.53256564" type="curve" smooth="yes"/>
      <point x="445.362007481" y="-171.063855686"/>
      <point x="488.647900639" y="-104.819763778"/>
      <point x="524.023696348" y="-29.3037467288" type="curve" smooth="yes"/>
    </contour>
  </outline>
</glyph>
<glyph name="z" format="1">
  <advance width="606.584233997"/>
  <unicode hex="007A"/>
  <outline>
    <contour>
      <point x="547.109720807" y="532.0" type="line"/>
      <point x="55.6845383334" y="532.0" type="line"/>
      <point x="55.6845383334" y="414.593595087" type="line"/>
      <point x="287.768843299" y="414.593595087" type="line"/>
      <point x="42.4442886111" y="86.9210113733" type="line"/>
      <point x="42.4442886111" y="0.0" type="line"/>
      <point x="571.545345733" y="0.0" type="line"/>
      <point x="571.545345733" y="117.406404913" type="line"/>
      <point x="304.407335916" y="117.406404913" type="line"/>
      <point x="547.109720807" y="444.7458971" type="line"/>
    </contour>
  </outline>
</glyph>
<glyph name="braceleft" format="1">
  <advance width="509.985846702"/>
  <unicode hex="007B"/>
  <outline>
    <contour>
      <point x="72.3918361772" y="229.734933564" type="line"/>
      <point x="103.522564604" y="227.599016742"/>
      <point x="125.140957885" y="223.342299907"/>
      <point x="139.624221339" y="210.934435772" type="curve" smooth="yes"/>
      <point x="154.076887552" y="198.223652153"/>
      <point x="161.379557083" y="179.300276799"/>
      <point x="161.379557083" y="143.864167368" type="curve" smooth="yes"/>
      <point x="161.379557083" y="37.4910981869" type="line" smooth="yes"/>
      <point x="161.379557083" y="-34.511542672"/>
      <point x="180.88056507" y="-79.3309505754"/>
      <point x="215.185375552" y="-108.362161393" type="curve" smooth="yes"/>
      <point x="267.387193956" y="-151.319813622"/>
      <point x="354.879644273" y="-155.80313865"/>
      <point x="487.124094301" y="-156.257330412" type="curve"/>
      <point x="487.124094301" y="-32.6057223744" type="line"/>
      <point x="436.326792928" y="-32.302927867"/>
      <point x="404.360928039" y="-26.2428971373"/>
      <point x="385.2874926" y="-9.18299138443" type="curve" smooth="yes"/>
      <point x="366.562315765" y="7.49848372257"/>
      <point x="360.65405722" y="35.8615589134"/>
      <point x="360.65405722" y="80.8299731654" type="curve" smooth="yes"/>
      <point x="360.65405722" y="147.847625547" type="line" smooth="yes"/>
      <point x="360.65405722" y="203.72706418"/>
      <point x="345.244415756" y="238.66703345"/>
      <point x="317.455905315" y="259.894191819" type="curve" smooth="yes"/>
      <point x="290.72755058" y="279.985308389"/>
      <point x="253.514643663" y="288.803313895"/>
      <point x="208.21189577" y="290.227158369" type="curve"/>
      <point x="208.21189577" y="293.697205493" type="line"/>
      <point x="253.590404778" y="294.681725061"/>
      <point x="290.98530619" y="302.211802914"/>
      <point x="317.455905315" y="323.0" type="curve" smooth="yes"/>
      <point x="345.244415756" y="345.0"/>
      <point x="360.65405722" y="379.93996927"/>
      <point x="360.65405722" y="435.046566272" type="curve" smooth="yes"/>
      <point x="360.65405722" y="501.912696423" type="line" smooth="yes"/>
      <point x="360.65405722" y="547.653952306"/>
      <point x="366.713713019" y="575.092788612"/>
      <point x="385.2874926" y="591.925660973" type="curve" smooth="yes"/>
      <point x="403.60394177" y="608.682772218"/>
      <point x="436.326792928" y="615.045597455"/>
      <point x="487.124094301" y="615.348391963" type="curve"/>
      <point x="487.124094301" y="739.0" type="line"/>
      <point x="354.879644273" y="738.545808239"/>
      <point x="267.387193956" y="733.8047276"/>
      <point x="215.185375552" y="691.104830981" type="curve" smooth="yes"/>
      <point x="180.88056507" y="662.073620164"/>
      <point x="161.379557083" y="617.25421226"/>
      <point x="161.379557083" y="545.251571402" type="curve" smooth="yes"/>
      <point x="161.379557083" y="439.030024451" type="line" smooth="yes"/>
      <point x="161.379557083" y="404.109001041"/>
      <point x="154.076887552" y="384.670539666"/>
      <point x="139.624221339" y="371.959756047" type="curve" smooth="yes"/>
      <point x="125.140957885" y="359.551891912"/>
      <point x="103.522564604" y="355.295175077"/>
      <point x="72.3918361772" y="353.23501937" type="curve"/>
    </contour>
  </outline>
</glyph>
<glyph name="bar" format="1">
  <advance width="463.782919695"/>
  <unicode hex="007C"/>
  <outline>
    <contour>
      <point x="170.792483189" y="-250.0" type="line"/>
      <point x="292.990436506" y="-250.0" type="line"/>
      <point x="292.990436506" y="750.0" type="line"/>
      <point x="170.792483189" y="750.0" type="line"/>
    </contour>
  </outline>
</glyph>
<glyph name="braceright" format="1">
  <advance width="509.985846702"/>
  <unicode hex="007D"/>
  <outline>
    <contour>
      <point x="437.594010525" y="353.23501937" type="line"/>
      <point x="406.645276592" y="355.295175077"/>
      <point x="384.844888817" y="359.551891912"/>
      <point x="370.361625363" y="371.959756047" type="curve" smooth="yes"/>
      <point x="355.65120354" y="384.670539666"/>
      <point x="348.34853401" y="404.109001041"/>
      <point x="348.34853401" y="439.030024451" type="curve" smooth="yes"/>
      <point x="348.34853401" y="545.251571402" type="line" smooth="yes"/>
      <point x="348.34853401" y="617.25421226"/>
      <point x="328.847526023" y="662.073620164"/>
      <point x="294.542715541" y="691.104830981" type="curve" smooth="yes"/>
      <point x="242.598652746" y="734.06248321"/>
      <point x="153.301913161" y="738.545808239"/>
      <point x="22.603996792" y="739.0" type="curve"/>
      <point x="22.603996792" y="615.348391963" type="line"/>
      <point x="73.9168093837" y="615.045597455"/>
      <point x="106.381904932" y="608.682772218"/>
      <point x="124.440598492" y="591.925660973" type="curve" smooth="yes"/>
      <point x="143.196372568" y="575.092788612"/>
      <point x="149.331789483" y="547.653952306"/>
      <point x="149.331789483" y="501.912696423" type="curve" smooth="yes"/>
      <point x="149.331789483" y="435.046566272" type="line" smooth="yes"/>
      <point x="149.331789483" y="379.93996927"/>
      <point x="164.92342544" y="345.0"/>
      <point x="192.529941387" y="323.0" type="curve" smooth="yes"/>
      <point x="218.742784903" y="302.211802914"/>
      <point x="256.319680809" y="294.681725061"/>
      <point x="301.773950932" y="293.697205493" type="curve"/>
      <point x="301.773950932" y="290.227158369" type="line"/>
      <point x="256.395441924" y="288.803313895"/>
      <point x="218.742784903" y="280.243063999"/>
      <point x="192.529941387" y="259.894191819" type="curve" smooth="yes"/>
      <point x="164.92342544" y="238.40927784"/>
      <point x="149.331789483" y="203.72706418"/>
      <point x="149.331789483" y="147.847625547" type="curve" smooth="yes"/>
      <point x="149.331789483" y="80.8299731654" type="line" smooth="yes"/>
      <point x="149.331789483" y="35.8615589134"/>
      <point x="143.347769822" y="7.49848372257"/>
      <point x="124.440598492" y="-9.18299138443" type="curve" smooth="yes"/>
      <point x="105.624918664" y="-26.2428971373"/>
      <point x="73.9168093837" y="-32.302927867"/>
      <point x="22.603996792" y="-32.6057223744" type="curve"/>
      <point x="22.603996792" y="-156.257330412" type="line"/>
      <point x="153.301913161" y="-155.80313865"/>
      <point x="242.598652746" y="-151.062058012"/>
      <point x="294.542715541" y="-108.362161393" type="curve" smooth="yes"/>
      <point x="328.847526023" y="-79.3309505754"/>
      <point x="348.34853401" y="-34.511542672"/>
      <point x="348.34853401" y="37.4910981869" type="curve" smooth="yes"/>
      <point x="348.34853401" y="143.864167368" type="line" smooth="yes"/>
      <point x="348.34853401" y="179.300276799"/>
      <point x="355.65120354" y="198.223652153"/>
      <point x="370.361625363" y="210.934435772" type="curve" smooth="yes"/>
      <point x="384.844888817" y="223.342299907"/>
      <point x="406.645276592" y="227.599016742"/>
      <point x="437.594010525" y="229.734933564" type="curve"/>
    </contour>
  </outline>
</glyph>
<glyph name="paragraph" format="1">
  <advance width="790.488156527"/>
  <unicode hex="00B6"/>
  <outline>
    <contour>
      <point x="291.094800118" y="-147.229674251" type="line"/>
      <point x="412.8030373" y="-147.229674251" type="line"/>
      <point x="412.8030373" y="620.705097049" type="line"/>
      <point x="509.491612406" y="620.705097049" type="line"/>
      <point x="509.491612406" y="-147.229674251" type="line"/>
      <point x="631.275610703" y="-147.229674251" type="line"/>
      <point x="631.275610703" y="709.0" type="line"/>
      <point x="312.173627733" y="709.0" type="line" smooth="yes"/>
      <point x="210.997792911" y="709.0"/>
      <point x="154.530983435" y="691.682088684"/>
      <point x="111.639465955" y="651.425295313" type="curve" smooth="yes"/>
      <point x="68.3366696214" y="610.802687184"/>
      <point x="50.5187388251" y="556.135465355"/>
      <point x="50.5187388251" y="499.54316738" type="curve" smooth="yes"/>
      <point x="50.5187388251" y="434.091126051"/>
      <point x="73.2286607404" y="382.560009423"/>
      <point x="113.3474987" y="346.770887232" type="curve" smooth="yes"/>
      <point x="155.86049769" y="308.920995757"/>
      <point x="217.190289994" y="289.465140336"/>
      <point x="291.094800118" y="289.859176391" type="curve"/>
    </contour>
  </outline>
</glyph>
<glyph name="endash" format="1">
  <advance width="647.431414442"/>
  <unicode hex="2013"/>
  <outline>
    <contour>
      <point x="24.3450322626" y="326.101430052" type="line"/>
      <point x="24.3450322626" y="171.580045055" type="line"/>
      <point x="623.086382179" y="171.580045055" type="line"/>
      <point x="623.086382179" y="326.101430052" type="line"/>
    </contour>
  </outline>
</glyph>
<glyph name="emdash" format="1">
  <advance width="1295.27198175"/>
  <unicode hex="2014"/>
  <outline>
    <contour>
      <point x="19.9670136807" y="326.101430052" type="line"/>
      <point x="19.9670136807" y="171.580045055" type="line"/>
      <point x="1270.66919387" y="171.580045055" type="line"/>
      <point x="1270.66919387" y="326.101430052" type="line"/>
    </contour>
  </outline>
</glyph>
<glyph name="bullet" format="1">
  <advance width="519.051258144"/>
  <unicode hex="2022"/>
  <outline>
    <contour>
      <point x="259.56350963" y="496.818439837" type="line"/>
      <point x="173.320803774" y="496.818439837"/>
      <point x="103.669308678" y="426.909189131"/>
      <point x="103.669308678" y="341.0" type="curve" smooth="yes"/>
      <point x="103.669308678" y="255.015049754"/>
      <point x="173.320803774" y="185.105799048"/>
      <point x="259.56350963" y="185.105799048" type="curve" smooth="yes"/>
      <point x="345.47269876" y="185.105799048"/>
      <point x="415.124193857" y="255.015049754"/>
      <point x="415.124193857" y="341.0" type="curve" smooth="yes"/>
      <point x="415.124193857" y="426.909189131"/>
      <point x="345.47269876" y="496.818439837"/>
      <point x="260.56350963" y="496.818439837" type="curve"/>
    </contour>
  </outline>
</glyph>
<glyph name="trademark" format="1">
  <advance width="1226.9397837"/>
  <unicode hex="2122"/>
  <outline>
    <contour>
      <point x="421.152251097" y="709.0" type="line"/>
      <point x="41.0982701103" y="709.0" type="line"/>
      <point x="41.0982701103" y="626.416632356" type="line"/>
      <point x="168.815818201" y="626.416632356" type="line"/>
      <point x="168.815818201" y="354.030172043" type="line"/>
      <point x="293.176947397" y="354.030172043" type="line"/>
      <point x="293.176947397" y="626.416632356" type="line"/>
      <point x="421.152251097" y="626.416632356" type="line"/>
    </contour>
    <contour>
      <point x="784.426080282" y="462.779860104" type="line"/>
      <point x="765.644011657" y="512.535932575"/>
      <point x="745.589495811" y="552.608327412"/>
      <point x="725.610616104" y="592.316183085" type="curve" smooth="yes"/>
      <point x="666.992501876" y="709.0" type="line"/>
      <point x="464.066273476" y="709.0" type="line"/>
      <point x="464.066273476" y="354.030172043" type="line"/>
      <point x="584.107176987" y="354.030172043" type="line"/>
      <point x="584.107176987" y="487.792691153" type="line" smooth="yes"/>
      <point x="584.107176987" y="533.607093561"/>
      <point x="583.697899146" y="580.149298702"/>
      <point x="582.076879967" y="634.557287814" type="curve"/>
      <point x="584.516755048" y="634.557287814" type="line"/>
      <point x="608.38903958" y="580.376457071"/>
      <point x="631.019110509" y="534.531332446"/>
      <point x="653.573420322" y="487.868327292" type="curve" smooth="yes"/>
      <point x="718.81231691" y="354.030172043" type="line"/>
      <point x="849.431690316" y="354.030172043" type="line"/>
      <point x="914.413381469" y="487.6412939" type="line" smooth="yes"/>
      <point x="937.043452398" y="533.455696307"/>
      <point x="960.08267619" y="580.149298702"/>
      <point x="983.954960722" y="634.557287814" type="curve"/>
      <point x="987.061319078" y="634.557287814" type="line"/>
      <point x="985.288902645" y="580.376457071"/>
      <point x="984.879624805" y="534.379935192"/>
      <point x="984.879624805" y="487.792691153" type="curve" smooth="yes"/>
      <point x="984.879624805" y="354.030172043" type="line"/>
      <point x="1105.11708944" y="354.030172043" type="line"/>
      <point x="1105.11708944" y="709.0" type="line"/>
      <point x="904.541258772" y="709.0" type="line"/>
      <point x="845.589627819" y="592.316183085" type="line" smooth="yes"/>
      <point x="826.459225881" y="553.608327412"/>
      <point x="806.844034941" y="512.763090944"/>
      <point x="787.016927418" y="462.779860104" type="curve"/>
    </contour>
  </outline>
</glyph>
<glyph name="fi" format="1">
  <advance width="886.83175323"/>
  <unicode hex="FB01"/>
  <outline>
    <contour>
      <point x="557.606971621" y="711.356938695" type="line"/>
      <point x="535.53529855" y="719.945021823"/>
      <point x="510.327220057" y="726.110060605"/>
      <point x="484.966893915" y="730.275649562" type="curve" smooth="yes"/>
      <point x="451.017621115" y="736.304032968"/>
      <point x="416.901233809" y="738.091616478"/>
      <point x="386.10308431" y="738.091616478" type="curve" smooth="yes"/>
      <point x="296.063565682" y="738.091616478"/>
      <point x="235.400805002" y="721.243375528"/>
      <point x="195.736895531" y="691.758884921" type="curve" smooth="yes"/>
      <point x="159.284928911" y="663.531976505"/>
      <point x="140.77139288" y="618.244787407"/>
      <point x="140.77139288" y="550.349256592" type="curve" smooth="yes"/>
      <point x="140.77139288" y="532.0" type="line"/>
      <point x="59.8501689618" y="532.0" type="line"/>
      <point x="59.8501689618" y="414.593595087" type="line"/>
      <point x="140.77139288" y="414.593595087" type="line"/>
      <point x="140.77139288" y="0.0" type="line"/>
      <point x="339.818734648" y="0.0" type="line"/>
      <point x="339.818734648" y="414.593595087" type="line"/>
      <point x="662.124363795" y="414.593595087" type="line"/>
      <point x="662.124363795" y="532.0" type="line"/>
      <point x="339.818734648" y="532.0" type="line"/>
      <point x="339.818734648" y="548.549219305" type="line" smooth="yes"/>
      <point x="339.818734648" y="572.239865659"/>
      <point x="347.966804583" y="591.356435863"/>
      <point x="362.961638361" y="603.308269333" type="curve" smooth="yes"/>
      <point x="377.19911094" y="614.396258271"/>
      <point x="397.040947207" y="620.728674646"/>
      <point x="422.199607575" y="620.728674646" type="curve" smooth="yes"/>
      <point x="443.677768208" y="620.728674646"/>
      <point x="466.428989639" y="616.759947039"/>
      <point x="482.332958627" y="610.959022223" type="curve" smooth="yes"/>
      <point x="498.116127602" y="605.793983441"/>
      <point x="511.097821586" y="597.932289341"/>
      <point x="520.035151824" y="590.207250617" type="curve"/>
    </contour>
    <contour>
      <point x="807.169135318" y="636.407375535" type="line"/>
      <point x="807.169135318" y="736.274099572" type="line"/>
      <point x="608.228151906" y="736.274099572" type="line"/>
      <point x="608.228151906" y="636.407375535" type="line"/>
    </contour>
    <contour>
      <point x="807.169135318" y="532.0" type="line"/>
      <point x="608.228151906" y="532.0" type="line"/>
      <point x="608.228151906" y="0.0" type="line"/>
      <point x="807.169135318" y="0.0" type="line"/>
    </contour>
  </outline>
</glyph>
